<svg width="24" height="24" viewBox="0 0 24 24" fill="none" xmlns="http://www.w3.org/2000/svg">
<path fill-rule="evenodd" clip-rule="evenodd" d="M1.00005 11.7723C0.982131 5.8074 5.92356 1 11.9917 1C17.2873 1 21.7257 4.66966 22.7656 9.56948C22.9212 10.2954 22.9997 11.0358 23 11.7782C23 17.7238 18.2621 22.6276 12.1675 22.6276C11.1758 22.6276 9.88885 22.3852 9.18264 22.1875C8.48793 21.9931 7.80226 21.7381 7.61969 21.6677C7.53523 21.6353 7.44555 21.6186 7.35509 21.6185L7.35404 21.6185L7.35298 21.6185C7.2553 21.6181 7.15856 21.6376 7.0686 21.6757L7.04901 21.684L3.71662 22.8866C3.57827 22.9434 3.43248 22.9801 3.28367 22.9956L3.24177 23L3.19964 22.9999C3.03332 22.9994 2.86876 22.9659 2.71549 22.9013C2.56221 22.8368 2.42327 22.7424 2.30671 22.6238C2.19015 22.5052 2.09828 22.3646 2.03644 22.2102C1.97459 22.0558 1.944 21.8907 1.94642 21.7244L1.94677 21.7008L1.94853 21.6772C1.95658 21.5697 1.97571 21.4634 2.00563 21.3598L2.94601 17.9583C2.92886 17.9043 2.89613 17.8328 2.85267 17.756C2.82902 17.7169 2.80348 17.6789 2.77616 17.6422L2.76273 17.6242L2.75035 17.6054C1.60878 15.8741 1.00022 13.846 1.00005 11.7723Z" fill="#3D3D3D"/>
<path d="M8.5 13C9.32843 13 10 12.3284 10 11.5C10 10.6716 9.32843 10 8.5 10C7.67157 10 7 10.6716 7 11.5C7 12.3284 7.67157 13 8.5 13Z" fill="#EBE2D5"/>
<path d="M12.5 13C13.3284 13 14 12.3284 14 11.5C14 10.6716 13.3284 10 12.5 10C11.6716 10 11 10.6716 11 11.5C11 12.3284 11.6716 13 12.5 13Z" fill="#EBE2D5"/>
<path d="M16.5 13C17.3284 13 18 12.3284 18 11.5C18 10.6716 17.3284 10 16.5 10C15.6716 10 15 10.6716 15 11.5C15 12.3284 15.6716 13 16.5 13Z" fill="#EBE2D5"/>
</svg>
