<svg width="24" height="24" viewBox="0 0 24 24" fill="none" xmlns="http://www.w3.org/2000/svg">
<path d="M14.6601 1C13.2099 1 11.8191 1.5874 10.7937 2.63298C9.76821 3.67856 9.19212 5.09667 9.19212 6.57534V9.67945H6.26601C6.1191 9.67945 6 9.80089 6 9.95068V14.0493C6 14.1991 6.1191 14.3205 6.26601 14.3205H9.19212V22.7288C9.19212 22.8786 9.31121 23 9.45813 23H13.4778C13.6247 23 13.7438 22.8786 13.7438 22.7288V14.3205H16.6959C16.8179 14.3205 16.9243 14.2358 16.9539 14.1151L17.9589 10.0165C18.0008 9.84528 17.8739 9.67945 17.7008 9.67945H13.7438V6.57534C13.7438 6.32757 13.8404 6.08994 14.0122 5.91473C14.184 5.73953 14.4171 5.6411 14.6601 5.6411H17.734C17.8809 5.6411 18 5.51966 18 5.36986V1.27123C18 1.12144 17.8809 1 17.734 1H14.6601Z" fill="#333333"/>
</svg>
