<svg width="211" height="257" viewBox="0 0 211 257" fill="none" xmlns="http://www.w3.org/2000/svg">
<path fill-rule="evenodd" clip-rule="evenodd" d="M144.139 39.2431C146.247 40.5636 149.001 41.9262 152.359 42.8619C153.42 43.1461 154.414 43.3543 155.374 43.5244C155.058 42.8584 154.747 42.121 154.476 41.3145C154.169 40.5057 153.932 39.7373 153.728 39.0069C157.639 41.3771 161.435 41.1222 165.255 41.0483C166.767 41.0392 168.035 40.9066 168.236 38.9476C171.798 40.0944 175.158 41.159 178.648 42.2646L178.847 42.3277C179.663 39.7634 177.03 39.3051 176.579 37.4112C177.214 37.596 177.785 37.6691 178.273 37.916C180.193 38.8298 182.105 39.8507 184.063 40.7311C184.481 40.9376 185.272 40.9532 185.541 40.684C185.849 40.3813 185.898 39.6315 185.747 39.1914C185.445 38.3112 184.957 37.5265 184.507 36.7084L184.503 36.702C184.054 35.886 183.605 35.0691 182.963 33.9187C184.829 34.5422 186.88 35.1059 189.15 35.6123C190.887 36.0123 192.56 36.3004 194.129 36.5102C193.224 34.9454 192.322 33.3448 191.417 31.78C194.505 31.3357 197.482 30.9558 200.427 30.5021C203.3 30.0438 206.18 29.4784 209.168 28.92C206.89 25.2578 200.599 22.9479 191.944 22.6711C194.181 21.4901 195.859 20.5954 197.948 19.4765C194.088 16.3209 190.246 17.2898 185.837 18.1142C187.314 16.9914 188.262 16.2642 189.586 15.2748C186.008 13.3207 182.702 13.7868 179.257 14.172C179.598 13.3695 179.891 12.7432 180.272 11.8716C176.57 10.1605 173.272 11.5951 169.819 12.6611C168.357 10.809 166.306 11.3567 164.479 11.7755C162.031 12.3332 159.696 13.3644 157.307 14.1053C156.646 14.3132 155.834 14.6189 155.232 14.4722C150.849 13.2545 146.731 14.0262 142.718 15.9521C142.458 16.0786 142.2 16.1693 141.942 16.2601C141.868 16.2911 141.763 16.2484 141.693 16.2081L141.701 16.1789C141.851 15.5955 142.212 14.1933 141.667 13.8757C141.528 13.795 141.346 13.819 141.057 13.8361C139.789 13.9686 139.507 13.8785 139.034 13.9553C135.473 14.4764 132.052 16.6918 132.052 16.6918C128.423 18.7862 125.835 22.0239 123.799 25.6203L123.77 25.6726C122.681 27.5915 121.591 29.5111 120.462 31.4984C115.748 31.4784 111.402 32.9882 107.183 34.7572C73.4608 48.9833 45.9468 70.6054 26.8515 102.134C21.1603 111.516 16.8698 121.491 14.4723 132.235C10.851 148.457 11.7805 164.438 16.7542 180.215C25.8983 209.208 43.5179 231.904 68.7873 248.824L69.3466 243.052C46.8507 226.098 31.6016 204.022 23.1722 177.298C16.1409 155.041 18.0355 133.328 28.51 112.497C39.3539 90.9723 54.7389 73.1858 73.9407 58.6597C86.0227 49.5144 98.8226 41.4915 112.949 35.7422C119.162 33.2066 119.599 33.1275 124.543 37.8596C128.774 41.9358 133.875 42.6265 139.345 42.0862C141.337 41.8933 141.881 41.2833 143.747 41.3689C144.249 41.4016 144.93 41.4459 145.132 41.1006C145.273 40.6077 144.679 39.7803 144.139 39.2431ZM153.612 36.382C156.508 38.8653 159.777 39.5084 164.048 39.1411C161.929 36.8876 160.211 35.0906 158.494 33.2935C156.136 30.8452 153.198 29.5424 149.92 29.0421C148.878 28.8767 147.817 28.9922 146.563 29.1288C145.973 29.193 145.341 29.2618 144.648 29.3084C144.984 29.5808 145.24 29.7934 145.451 29.9685C145.753 30.2196 145.963 30.3935 146.185 30.5559C146.737 30.9793 147.29 31.3993 147.844 31.8189C147.88 31.8467 147.918 31.8751 147.955 31.903L147.956 31.9037C149.874 33.3583 151.789 34.8102 153.612 36.382ZM161.246 27.5566C160.513 27.7012 159.77 27.7324 158.87 27.7701C158.428 27.7887 157.948 27.8088 157.412 27.8448C160.875 35.0978 167.473 36.9119 174.607 38.8734L174.717 38.9035C173.451 37.5377 172.243 36.2164 171.065 34.9282C169.117 32.7973 167.252 30.757 165.343 28.7556C164.266 27.6098 162.89 27.1975 161.246 27.5566ZM153.881 23.5273C156.224 21.3048 158.491 19.0177 160.8 16.6886C161.593 15.8883 162.391 15.0831 163.199 14.2738C155.845 15.5519 147.787 21.517 143.559 27.8033C143.792 27.7854 144.009 27.7732 144.212 27.7617C144.67 27.7358 145.062 27.7137 145.441 27.639C148.649 27.0232 151.54 25.7414 153.881 23.5273ZM140.756 25.5412C143.446 23.4289 146.104 21.2605 148.75 19.1011L148.753 19.0989L148.755 19.0966L148.756 19.0958L148.758 19.0946L148.759 19.0934C149.843 18.209 150.925 17.3262 152.007 16.4493C142.906 15.8209 137.949 21.7012 132.981 28.2978C136.185 28.2912 138.594 27.229 140.756 25.5412ZM175.873 13.0911C169.827 13.0919 162.733 18.08 158.351 25.6112C160.341 25.9918 161.973 25.8111 163.439 24.8668C164.72 23.9821 166.04 23.0641 167.157 21.9536C169.133 20.0273 171.05 18.0504 172.944 16.0971C173.925 15.0854 174.9 14.08 175.873 13.0911ZM196.416 29.0936C198.216 28.8417 200.008 28.4853 201.94 28.101C203.01 27.888 204.124 27.6665 205.306 27.4494C198.653 23.5382 192.373 23.8106 185.828 26.468C187.155 28.1679 188.812 29.2439 190.893 29.3436C192.721 29.4626 194.599 29.3697 196.416 29.0936ZM141.465 36.6667C143.817 37.4315 146.197 38.0798 148.712 38.7649C149.587 39.0034 150.479 39.2463 151.392 39.5002C147.444 32.7534 141.615 30.5452 134.143 30.8833C134.209 31.0307 134.27 31.1738 134.329 31.3123C134.52 31.764 134.691 32.1674 134.971 32.5149C136.67 34.5976 138.962 35.8583 141.465 36.6667ZM171.797 32.4028C173.87 33.721 177.967 35.9957 183.374 38.6067C183.01 37.579 179.54 28.4967 172.097 27.295C171.134 27.1606 169.913 27.117 168.53 27.3496C168.579 28.2492 168.85 29.0556 169.2 29.7597C169.935 31.17 171.073 31.9254 171.797 32.4028ZM185.136 15.6305C177.728 15.5425 172.753 18.9476 168.936 25.0096C171.194 25.6944 172.954 25.1995 174.604 24.1954C175.315 23.7756 175.996 23.2821 176.642 22.7505C178.633 21.1087 180.626 19.4292 182.721 17.6636L182.722 17.6629C183.51 16.9985 184.313 16.3219 185.136 15.6305ZM132.143 34.482C129.331 32.3628 126.165 32.3359 122.757 33.2614C128.242 39.0686 131.187 40.2643 138.489 39.7716C137.979 39.338 137.475 38.9047 136.974 38.4741C135.366 37.0923 133.789 35.7373 132.143 34.482ZM133.868 21.3637C133.975 21.2351 134.087 21.1004 134.203 20.96C135.193 19.7639 136.528 18.1519 138.196 16.3031C136.059 17.0603 132.097 18.7386 128.43 22.5156C125.226 25.8208 123.665 29.3047 122.92 31.3358C123.25 31.1739 123.594 31.038 123.937 30.9028C124.6 30.6415 125.256 30.3829 125.783 29.9445C127.453 28.6191 129.095 27.1842 130.46 25.5879C131.32 24.5946 131.824 23.949 132.416 23.1911C132.815 22.68 133.254 22.1179 133.868 21.3637ZM177.687 27.1211C183.212 26.8355 189.32 30.2809 190.495 34.3016C190.048 34.1763 189.599 34.0546 189.151 33.933C184.75 32.74 180.4 31.5605 177.687 27.1211ZM178.391 25.1591C183.026 20.9072 189.986 17.9542 193.942 19.6459C192.687 20.2374 191.475 20.9215 190.266 21.6041C186.646 23.6481 183.052 25.6776 178.391 25.1591Z" fill="#B27C21"/>
<path fill-rule="evenodd" clip-rule="evenodd" d="M34.7307 205.53C27.5711 183.747 26.7875 161.906 34.1666 139.999C38.6907 126.53 46.543 115.26 56.7373 105.457C66.7617 95.8054 78.4771 88.8169 91.1667 83.2959C91.9434 82.9569 92.7284 82.7465 93.6475 82.4479C94.0819 82.9863 94.539 83.4138 94.8622 83.9296C96.5975 86.6598 99.1585 87.964 102.335 88.1345C105.813 88.3548 107.559 88.4894 113.475 88.8689C114.196 88.9112 114.789 88.962 115.159 88.9677C115.138 88.5018 115.042 87.9513 114.933 87.3519C114.78 86.6858 114.604 86.1306 114.392 85.6374C117.828 86.5763 121.313 87.5022 124.749 88.4411C124.175 86.9386 123.786 85.9586 123.22 84.5296L123.06 84.1271C125.43 85.4041 127.27 86.3776 129.111 87.3511C129.969 87.8021 130.874 88.8168 131.862 87.8973C132.815 87.0397 132.057 85.9856 131.776 85.0395C131.547 84.2889 131.22 83.5646 130.815 82.5472C134.274 83.0869 137.22 84.1573 140.106 85.4005C140.609 85.6063 141.102 85.9718 141.627 86.0668C142.802 86.3281 143.442 85.5804 143.01 84.4653C142.605 83.4478 142.016 82.5318 141.759 81.1865C143.211 82.1854 145.029 83.2697 147.213 84.1512C147.983 84.4688 148.708 84.7197 149.42 84.9218C149.476 84.252 149.418 83.3511 149.172 82.3431C148.663 80.358 147.519 79.0408 146.898 78.3953C150.467 79.5344 153.435 80.494 156.576 81.5118C157.184 78.8872 154.478 78.1193 154.001 76.1521C159.096 76.5154 163.787 74.4991 168.791 73.4468C167.609 72.4799 165.357 70.8573 162.108 70.0254C158.209 69.0272 154.954 69.6374 153.402 70.027C154.14 69.253 155.08 68.3466 156.242 67.4853C157.355 66.6372 158.422 66.0108 159.369 65.5215C158.956 65.1607 158.463 64.7952 157.885 64.5048C155.199 63.1291 152.394 63.7497 151.346 64.0567C151.246 63.2976 151.433 62.331 151.03 61.8105C150.689 61.3257 149.736 61.1095 149.014 61.0672C147.09 60.9542 145.138 61.0318 143 61.0024C142.677 59.4129 141.189 59.2614 139.794 59.4519C137.895 59.725 136.011 60.5439 134.121 60.6573C132.361 60.7623 130.555 60.0152 128.755 59.9736C127.196 59.9462 125.608 60.3978 123.495 60.7545C122.007 59.5293 119.591 59.8361 117.31 60.84C115.127 61.8176 113.099 63.1729 110.982 64.3948C111.341 63.7748 111.749 63.1417 112.095 62.4729C112.697 61.2903 112.201 60.4278 110.869 60.3656C110.235 60.3284 109.574 60.4776 108.96 60.6162L108.939 60.6209C102.503 62.2142 98.4228 66.3977 95.9746 72.3439L95.9596 72.3784C95.5909 73.2272 95.2091 74.1061 95.1395 75.0033C94.9314 77.9399 92.9042 79.0068 90.5036 79.8594C70.5441 87.1972 53.9607 99.1564 41.1483 116.129C32.1484 128.021 27.4543 141.64 24.7708 156.082C21.9819 171.207 23.1948 186.151 27.238 200.86L34.7307 205.53ZM100.287 79.0717C99.1415 79.3077 98.0122 79.6471 96.8041 80.0102C96.2246 80.1843 95.627 80.3639 95.0009 80.5402C96.577 82.9725 98.341 84.1499 99.3678 84.739C101.6 85.8958 103.765 86.0229 107.453 86.2395C109.537 86.3619 111.231 86.3011 112.376 86.2562C111.664 84.9803 109.446 81.4365 105.1 79.8511C102.769 79.0091 100.759 78.9712 100.287 79.0717ZM97.9169 72.4259C97.2387 73.9178 96.6299 75.4496 95.9321 77.2053C95.6954 77.8009 95.4485 78.4223 95.1851 79.0766C100.091 77.7621 103.637 75.7908 105.371 71.2931C106.078 69.4447 106.957 67.6573 107.884 65.7717C108.333 64.8591 108.793 63.9236 109.25 62.9469C108.973 62.995 108.72 63.0248 108.487 63.0522C108.023 63.1067 107.639 63.1519 107.297 63.313C103.079 65.2288 99.8458 68.164 97.9169 72.4259ZM114.401 70.4451C115.987 68.3508 117.52 66.2264 119.054 64.102C119.565 63.3936 120.076 62.6853 120.589 61.9781C114.948 62.1276 109.083 67.8892 107.401 75.0182C109.048 75.4674 110.334 74.6776 111.421 73.7318C112.507 72.7859 113.51 71.6268 114.401 70.4451ZM134.935 81.7314C136.315 82.0688 138.34 82.6525 140.768 83.7566C138.265 80.132 135.744 77.9006 134.096 76.6659C132.435 75.3824 131.141 74.6815 129.56 74.4764C128.442 74.3307 127.261 74.4376 125.999 74.8282C126.425 77.3854 127.745 79.2578 130.058 80.1309C132.247 80.9325 133.84 81.4747 134.935 81.7314ZM124.746 68.6166C125.928 67.1476 127.043 65.6034 128.158 64.0592C128.716 63.287 129.274 62.5149 129.84 61.7521C125.619 61.0235 119.704 66.0128 117.063 73.2938C118.786 73.5393 120.223 72.9185 121.439 71.9642C122.642 70.9611 123.787 69.8424 124.746 68.6166ZM129.58 84.8946C127.121 78.1154 122.994 75.2928 116.326 75.9269C116.605 78.5235 118.261 79.8868 120.151 80.8472C122.341 81.8942 124.598 82.8271 126.918 83.7864C127.796 84.1495 128.683 84.5163 129.58 84.8946ZM114.147 78.1868C110.851 76.7913 107.869 77.1451 106.585 77.3581C106.828 77.8692 107.266 78.6161 107.908 79.4391C110.041 81.9843 112.75 82.9607 114.944 83.6825C116.332 84.1487 118.455 84.706 121.119 84.8304C120.633 83.8083 118.652 80.0701 114.147 78.1868ZM142.652 69.7643C143.786 68.3027 144.97 66.8696 146.166 65.4223C146.863 64.5778 147.565 63.7286 148.263 62.866C143.658 61.2975 138.656 65.2827 135.996 71.8094C138.649 72.3819 140.905 72.0656 142.652 69.7643ZM139.379 61.8154C135.087 60.9224 129.315 65.9521 126.747 72.8208C129.452 72.5149 131.702 71.4932 133.363 69.5554C134.874 67.7723 136.281 65.9081 137.707 64.0181C138.259 63.2867 138.814 62.5514 139.379 61.8154ZM135.201 74.3269C139.74 72.43 144.504 75.6585 146.067 81.2633C138.028 78.179 136.82 77.4028 135.201 74.3269ZM151.145 72.7792C155.615 70.4294 159.936 70.5549 164.59 73.1841C163.437 73.3112 162.307 73.5432 161.191 73.7724C157.807 74.4671 154.549 75.1361 151.145 72.7792ZM153.484 78.3333C148.503 78.2011 144.928 76.3565 143.649 73.2685C148.273 72.3701 150.836 75.2451 153.484 78.3333ZM155.384 65.9605C154.586 66.4985 153.833 67.054 153.099 67.5961C150.511 69.5054 148.148 71.2493 144.85 71.48C146.916 67.6268 150.895 65.4085 155.384 65.9605Z" fill="#B27C21"/>
<path fill-rule="evenodd" clip-rule="evenodd" d="M126.918 83.7864L116.326 75.9269C116.605 78.5235 118.261 79.8868 120.151 80.8472C122.341 81.8942 124.598 82.8271 126.918 83.7864Z" fill="#B27C21"/>
</svg>
