<svg width="140" height="140" viewBox="0 0 140 140" fill="none" xmlns="http://www.w3.org/2000/svg">
<path fill-rule="evenodd" clip-rule="evenodd" d="M138.25 70C138.25 70.606 138.242 71.2102 138.227 71.8125C137.834 86.5268 132.696 100.73 123.568 112.296C118.187 119.102 111.536 124.858 103.973 129.207C99.8181 131.594 95.4091 133.544 90.8154 135.018C84.2532 137.117 77.259 138.25 70.0002 138.25C67.6978 138.25 65.4221 138.136 63.1783 137.913C70.0771 138.599 77.0536 138.244 83.8719 136.848C86.226 136.358 88.5433 135.746 90.8154 135.018C95.4348 133.54 99.8402 131.584 103.973 129.207C111.178 125.069 117.619 119.621 122.938 113.082C123.15 112.821 123.36 112.559 123.568 112.296C132.413 101.109 137.828 87.0852 138.227 71.8125C138.243 71.2072 138.251 70.6011 138.251 69.9943L138.25 69.9615C138.242 55.3698 133.655 41.8491 125.848 30.7585C124.806 29.2742 123.702 27.8275 122.538 26.4226C112.659 14.501 99.0204 6.29215 83.8612 3.14347C79.3057 2.21813 74.6807 1.75364 70.0554 1.75002C93.1197 1.76828 113.507 13.2273 125.848 30.7585C133.648 41.8698 137.982 55.0944 138.227 68.7504L138.248 69.7696L137.753 69.8873L138.248 69.8739L138.25 69.9615L138.25 70ZM54.0411 136.374C56.4174 136.943 58.842 137.388 61.3076 137.702C59.5823 137.482 57.8632 137.198 56.154 136.848C55.4466 136.701 54.7422 136.543 54.0411 136.374ZM25.3665 121.632C33.6185 128.772 43.4533 133.822 54.0411 136.374C24.0462 129.188 1.75018 102.198 1.75018 70C1.75018 47.3585 12.7753 27.292 29.7499 14.8763C29.6881 14.9249 29.6265 14.9741 29.5651 15.0241L28.7625 15.634C28.6072 15.7535 28.4525 15.8692 28.2983 15.9845L28.2982 15.9846L28.2982 15.9846L28.2981 15.9846L28.2981 15.9847L28.2977 15.985L28.2972 15.9853C28.1064 16.128 27.9164 16.2701 27.7272 16.4179C27.5454 16.5613 27.3666 16.7109 27.1874 16.8608L27.1873 16.8609C27.1292 16.9094 27.0712 16.958 27.0129 17.0064L26.1943 17.6832C25.8867 17.9347 25.579 18.1862 25.2794 18.4484C25.075 18.616 24.8908 18.7883 24.7055 18.9618L24.7051 18.9621C24.6481 19.0155 24.5909 19.069 24.533 19.1225L23.7599 19.8261C23.6407 19.9381 23.5162 20.0502 23.3906 20.1632L23.3905 20.1633L23.3904 20.1633L23.3904 20.1634L23.3903 20.1634L23.3903 20.1635L23.3902 20.1635L23.3902 20.1636C23.2341 20.304 23.0764 20.446 22.9252 20.5912C22.6551 20.8507 22.4165 21.0919 22.1652 21.3458L22.1574 21.3536L21.411 22.1027C21.1623 22.3461 20.9135 22.5923 20.6727 22.8437C20.4319 23.0952 20.1376 23.4109 19.8915 23.6971L19.22 24.4355C18.9846 24.6896 18.7492 24.9464 18.5218 25.2086C18.2999 25.4644 18.0399 25.7788 17.8012 26.0673L17.7835 26.0888L17.12 26.8913L17.1198 26.8916C16.9085 27.143 16.6973 27.3943 16.5555 27.5869L16.4325 27.718C9.22722 36.8528 4.47584 47.6773 2.62928 59.1643C0.782722 70.6512 1.90224 82.4195 5.88158 93.3523C9.86093 104.285 16.5681 114.02 25.3665 121.632ZM30.8977 14.0548C30.5122 14.3248 30.1295 14.5987 29.7499 14.8763C29.9198 14.743 30.0914 14.6146 30.266 14.489C30.4701 14.3443 30.6828 14.1996 30.8977 14.0548ZM32.4445 13.0029L32.3213 13.0881L32.2296 13.1514L31.4458 13.6865C31.3402 13.7578 31.2339 13.8291 31.1275 13.9005L31.1264 13.9012C31.0501 13.9524 30.9737 14.0036 30.8977 14.0548C31.4082 13.6973 31.9239 13.3467 32.4445 13.0029ZM32.4445 13.0029C42.6418 6.27031 54.7522 2.20086 67.785 1.78527C68.5232 1.76176 69.2617 1.75001 70.0002 1.75C69.2589 1.75 68.5205 1.76182 67.785 1.78527C63.8817 1.90955 59.9864 2.36229 56.1406 3.14347C54.3509 3.51533 52.5505 3.96476 50.7902 4.48108C45.4918 6.03588 40.4019 8.22867 35.6325 11.0113C34.7068 11.5463 33.7892 12.1188 32.9038 12.694C32.749 12.7941 32.5968 12.8979 32.4445 13.0029ZM110.428 68.9968C110.41 64.1635 109.758 59.3534 108.489 54.6897C116.169 52.6191 120.26 50.6074 120.631 50.4094C122.918 56.3427 124.139 62.6334 124.238 68.9914L110.428 68.9968ZM99.8144 24.6711L99.8145 24.6712L99.8157 24.672C99.9062 24.7345 99.9969 24.797 100.089 24.8584C100.575 25.1821 101.062 25.5058 101.538 25.8456C101.694 25.9562 101.846 26.0718 101.998 26.1876L101.998 26.1878C102.093 26.2596 102.187 26.3314 102.282 26.402L102.494 26.5584L102.494 26.5587L102.494 26.5588C102.847 26.8192 103.199 27.0795 103.542 27.3491C103.81 27.5604 104.077 27.7824 104.331 27.9991L104.426 28.0758L104.426 28.0761L104.426 28.0762L104.426 28.0762C104.778 28.361 105.13 28.6466 105.471 28.9435C105.649 29.1004 105.828 29.2621 106.006 29.4239C106.095 29.5047 106.184 29.5855 106.274 29.6658C106.374 29.7568 106.474 29.8473 106.575 29.9378C106.826 30.1641 107.078 30.3904 107.322 30.6235C107.59 30.891 107.857 31.1586 108.125 31.41C108.454 31.7337 108.783 32.0574 109.104 32.3892C109.283 32.5679 109.455 32.7597 109.628 32.9511L109.628 32.9512C109.713 33.0463 109.799 33.1413 109.885 33.2345C109.947 33.3014 110.008 33.3682 110.07 33.4349L110.07 33.435C110.317 33.7021 110.563 33.9692 110.803 34.2431C110.989 34.4463 111.16 34.6547 111.331 34.8629L111.331 34.863C111.405 34.9535 111.479 35.044 111.554 35.1339L111.62 35.2121L111.62 35.2122L111.621 35.2137C111.842 35.4772 112.038 35.7107 112.245 35.9686C108.866 37.4385 105.404 38.7079 101.876 39.7701C98.6367 34.9579 94.8171 30.5633 90.5032 26.6856C92.9208 25.7071 95.2634 24.5528 97.5123 23.2319C98.1811 23.6198 98.8312 24.0184 99.4705 24.4304H99.4598C99.5789 24.5088 99.6964 24.5898 99.814 24.6709L99.8142 24.671L99.8144 24.6711ZM108.248 53.8952C107.013 49.5749 105.249 45.4236 102.996 41.5357C102.849 41.2811 102.68 41.0158 102.512 40.7513C102.457 40.6657 102.403 40.5801 102.349 40.495C105.905 39.4142 109.393 38.1234 112.796 36.6294C115.897 40.595 118.431 44.9725 120.326 49.6362C120.323 49.6368 120.319 49.637 120.315 49.6371L120.308 49.637L120.304 49.6367L120.3 49.6362C120.244 49.6844 116.183 51.7764 108.259 53.8952H108.248ZM19.0216 51.3297L19.0307 51.3338C16.9638 56.9979 15.8594 62.968 15.7632 68.9968H30.6828C30.7615 64.4692 31.3977 59.9686 32.5769 55.5966C24.7502 53.7874 20.2508 51.8877 19.0307 51.3338L19.0323 51.3297H19.0216ZM19.3078 50.5538C21.2352 45.5451 23.8977 40.8512 27.2077 36.6267C31.0379 38.3145 34.9765 39.7444 38.9974 40.907C38.93 41.0132 38.861 41.1203 38.792 41.2272L38.7913 41.2283L38.7911 41.2287C38.6466 41.4527 38.5024 41.6764 38.3741 41.8915C35.9683 45.9396 34.0962 50.2818 32.8043 54.8101C24.8455 52.9615 20.3726 51.0381 19.3185 50.5538H19.3078ZM27.7454 35.9686C27.8708 35.8194 27.9969 35.6661 28.1234 35.5123C28.2238 35.3903 28.3244 35.268 28.4249 35.1473L28.5182 35.0352L28.5186 35.0347L28.5191 35.0342L28.5195 35.0337C28.727 34.7843 28.9655 34.4977 29.1901 34.2431C29.4564 33.936 29.7335 33.6374 30.0098 33.3398L30.105 33.2372C30.2255 33.1094 30.3423 32.9811 30.4584 32.8535L30.4585 32.8534C30.6 32.6978 30.7407 32.5432 30.8861 32.3918C31.1718 32.0943 31.4659 31.8052 31.7591 31.517L31.8679 31.41C32.1355 31.1425 32.403 30.875 32.6705 30.6262C33.0156 30.2998 33.3687 29.9841 33.7219 29.6685L33.8823 29.5223C34.0963 29.3271 34.3104 29.1318 34.5244 28.9435C34.8497 28.663 35.1813 28.3928 35.5136 28.1221L35.5139 28.1219L35.648 28.0125C35.7623 27.9188 35.8766 27.8236 35.9909 27.7284L35.9912 27.7282L35.9919 27.7276C36.1448 27.6002 36.2977 27.4729 36.4506 27.3491C36.8492 27.0361 37.2531 26.7364 37.6678 26.4315C37.7838 26.3468 37.8967 26.2612 38.0092 26.1758L38.0095 26.1756L38.0095 26.1756L38.0096 26.1755L38.0096 26.1755C38.1566 26.064 38.3029 25.9531 38.4543 25.8456C38.8666 25.548 39.2899 25.266 39.7143 24.9833L39.7145 24.9832L39.8374 24.9012C39.9371 24.8348 40.0354 24.7668 40.1337 24.6988L40.1338 24.6987C40.2648 24.6081 40.3958 24.5175 40.5303 24.4304C41.1133 24.0507 41.7076 23.6934 42.3089 23.3319L42.4752 23.2319C45.1684 24.8124 47.9943 26.1551 50.9208 27.2447C46.6565 30.9552 42.3601 35.8322 39.4629 40.174C35.4716 39.0337 31.5607 37.6288 27.7561 35.9686H27.7454ZM15.7471 69.8234H30.6775V70C30.6789 74.7513 31.293 79.4827 32.5046 84.0769C24.5967 86.0084 20.2736 88.0389 19.0403 88.6703C16.8512 82.6894 15.7354 76.3689 15.7444 70C15.7428 69.9647 15.7441 69.9293 15.7454 69.894C15.7463 69.8705 15.7471 69.8469 15.7471 69.8234ZM40.1397 115.302C40.0132 115.219 39.8884 115.131 39.7639 115.043C39.6725 114.979 39.5813 114.915 39.4896 114.853L39.3528 114.76C38.9224 114.467 38.4929 114.176 38.0744 113.871C37.9124 113.756 37.7601 113.637 37.6082 113.518C37.5093 113.441 37.4106 113.363 37.3093 113.288C37.2183 113.219 37.1269 113.15 37.0356 113.081L37.0353 113.08C36.716 112.84 36.396 112.598 36.0841 112.349C35.9311 112.223 35.7782 112.094 35.6253 111.965C35.5107 111.869 35.3961 111.772 35.2815 111.677C35.1965 111.606 35.1113 111.535 35.026 111.465L35.0258 111.464C34.7379 111.225 34.4498 110.986 34.1713 110.741C33.9708 110.558 33.7703 110.371 33.5699 110.184L33.5691 110.184L33.3687 109.997L33.2734 109.91L33.2023 109.845L33.1272 109.777L33.127 109.777L33.1267 109.777C32.8619 109.536 32.5978 109.295 32.3414 109.047L31.5389 108.245L31.5384 108.244L31.5382 108.244L31.5381 108.244C31.2173 107.923 30.8966 107.602 30.5838 107.274C30.3163 106.99 30.0488 106.699 29.8 106.41C29.7257 106.327 29.6512 106.245 29.5768 106.163L29.5765 106.163L29.5764 106.163C29.3509 105.915 29.1257 105.667 28.9065 105.412C28.6905 105.16 28.5157 104.947 28.3374 104.729C28.2749 104.653 28.212 104.576 28.1467 104.497C28.0859 104.423 28.0283 104.354 27.9727 104.287C27.7983 104.077 27.6443 103.892 27.4779 103.673C31.2917 101.983 35.2154 100.553 39.2221 99.3925C42.3815 104.165 47.0631 109.042 50.7603 112.319C47.7453 113.454 44.839 114.859 42.0765 116.517C41.4211 116.131 40.7764 115.73 40.129 115.31L40.1397 115.302ZM32.7213 84.8741C33.9697 89.3565 35.7857 93.661 38.1253 97.683C38.2551 97.9048 38.4007 98.1302 38.5465 98.356C38.6171 98.4652 38.6877 98.5745 38.7566 98.6836C34.7273 99.8582 30.7821 101.304 26.9482 103.012C23.7672 98.8834 21.1993 94.3169 19.3239 89.4541C20.3538 88.9164 24.6342 86.8458 32.7213 84.8741ZM58.9812 123.146C58.2589 122.996 57.5419 122.83 56.8277 122.653C56.6671 122.613 56.5076 122.569 56.3478 122.524L56.3469 122.524L56.2289 122.491C56.1833 122.478 56.1377 122.465 56.092 122.453L55.8775 122.396C55.4836 122.292 55.0903 122.189 54.7009 122.076C54.567 122.036 54.4342 121.994 54.3015 121.952C54.1452 121.903 53.9891 121.853 53.8314 121.808C53.6415 121.749 53.4516 121.687 53.262 121.626L53.2617 121.626L53.2614 121.626L53.2611 121.626L53.2608 121.626L53.2605 121.626C53.0392 121.554 52.8183 121.482 52.5982 121.415C52.3712 121.337 52.1443 121.254 51.9174 121.171C51.842 121.143 51.7666 121.116 51.6913 121.088C51.5832 121.05 51.4751 121.012 51.3671 120.974C51.0874 120.876 50.8081 120.778 50.5302 120.666C50.2905 120.573 50.0523 120.475 49.8146 120.377L49.8143 120.377L49.6046 120.291C49.5431 120.266 49.4815 120.241 49.4199 120.216L49.28 120.159L49.2774 120.158L49.2771 120.158L49.277 120.158L49.277 120.158L49.2769 120.158L49.2768 120.158L49.2767 120.158L49.2766 120.158L49.2766 120.158L49.2765 120.158L49.2764 120.158L49.2763 120.158L49.2762 120.158L49.2762 120.158C49.013 120.051 48.7497 119.945 48.489 119.831L48.3299 119.761C48.0733 119.649 47.8179 119.538 47.5607 119.411C47.1996 119.248 46.8411 119.085 46.4906 118.914C46.2494 118.797 46.0098 118.676 45.7706 118.555L45.7701 118.554L45.565 118.451C45.2146 118.274 44.8641 118.098 44.5163 117.916C44.2114 117.752 43.9091 117.584 43.6068 117.413C43.3687 117.282 43.1306 117.145 42.8952 117.009C47.0374 114.576 51.4903 112.716 56.1321 111.479C56.1684 111.479 56.2044 111.474 56.2391 111.463C58.4833 110.872 62.6455 110.229 65.3077 109.897C66.416 111.263 67.7112 112.579 69.2164 113.825L69.9975 114.47V114.491H70.0109V114.47L70.7921 113.825C72.3191 112.559 73.6307 111.22 74.7503 109.831C77.5082 110.171 81.4133 110.85 83.7831 111.474C83.7954 111.477 83.8082 111.477 83.8205 111.474C88.4811 112.703 92.9524 114.561 97.111 116.998C96.969 117.082 96.826 117.162 96.6826 117.242L96.5774 117.301L96.5039 117.343C96.4691 117.362 96.4342 117.382 96.3994 117.402C96.0971 117.573 95.7948 117.742 95.4871 117.905C95.1795 118.068 94.7889 118.269 94.4385 118.44C94.3545 118.482 94.2707 118.525 94.187 118.567C93.964 118.681 93.7411 118.794 93.5155 118.903C93.2521 119.03 92.9858 119.152 92.7219 119.273C92.6294 119.316 92.5371 119.358 92.4454 119.4C92.1378 119.542 91.8301 119.684 91.5198 119.82C91.2169 119.951 90.9121 120.075 90.6071 120.199L90.6069 120.199L90.6068 120.199L90.6067 120.199L90.6065 120.199L90.6064 120.199L90.3989 120.283C90.2715 120.334 90.1445 120.386 90.0177 120.438L90.0169 120.438C89.8377 120.511 89.6586 120.585 89.4786 120.655C89.1242 120.79 88.7654 120.917 88.4082 121.044L88.3069 121.08C88.196 121.12 88.0856 121.161 87.975 121.201L87.9743 121.202C87.7863 121.271 87.5982 121.34 87.408 121.404C87.0673 121.518 86.723 121.626 86.3781 121.733L86.1533 121.803C86.0478 121.836 85.9423 121.87 85.8366 121.904L85.8363 121.904C85.6608 121.96 85.4849 122.017 85.308 122.07C84.8371 122.209 84.3636 122.338 83.8928 122.456C83.8359 122.471 83.7794 122.486 83.723 122.502L83.5926 122.538C83.4541 122.577 83.3159 122.615 83.1758 122.651C82.4615 122.827 81.7419 122.993 81.0196 123.143C73.7481 124.623 66.2531 124.624 58.9812 123.146ZM75.3341 109.078C75.1456 109.331 74.951 109.581 74.7503 109.831C74.3512 109.781 73.9762 109.739 73.6333 109.705C73.5794 109.7 73.527 109.684 73.4792 109.659C73.4314 109.633 73.3892 109.598 73.3549 109.556C73.3206 109.514 73.2949 109.466 73.2793 109.414C73.2638 109.362 73.2586 109.307 73.2642 109.253C73.2763 109.144 73.3308 109.045 73.4159 108.976C73.501 108.906 73.6098 108.874 73.7189 108.884C74.258 108.944 74.7964 109.008 75.3341 109.078ZM98.8668 98.8668C99.3972 99.012 99.9256 99.1607 100.452 99.3123C97.2421 103.879 92.4107 108.964 88.7215 112.153C87.1753 111.591 85.6022 111.083 84.0025 110.669H83.965C81.1176 109.987 78.2367 109.456 75.3341 109.078C78.331 105.068 79.8032 100.675 80.2971 96.3776C85.1082 96.6983 89.8985 97.2787 94.6469 98.1165L98.8668 98.8668ZM99.9855 98.3274L100.214 99.1063L98.8668 98.8668C97.5897 98.5171 96.301 98.1877 94.9949 97.889C94.8999 97.8547 94.8206 97.7867 94.7722 97.6981C94.7237 97.6094 94.7092 97.506 94.7316 97.4075C94.7539 97.3089 94.8115 97.2219 94.8935 97.1628C94.9755 97.1037 95.0762 97.0765 95.1768 97.0865C96.8025 97.4579 98.4024 97.8792 99.9855 98.3274ZM96.7082 82.791C100.848 83.3313 104.383 83.9679 107.368 84.6227C106.103 88.9314 104.306 93.0654 102.017 96.9286C101.694 97.4637 101.33 98.0335 100.947 98.6033C100.627 98.5104 100.307 98.4183 99.9855 98.3274L98.6303 93.7077C97.6467 90.3547 97.0414 86.6323 96.7082 82.791ZM96.6395 81.9475C96.3328 77.9236 96.3139 73.7901 96.4623 69.8314H109.588C109.536 74.5607 108.869 79.2631 107.603 83.8201C104.547 83.1482 100.915 82.4998 96.6395 81.9475ZM96.4958 69.0048C96.6842 64.6742 97.0653 60.5795 97.4782 57.1003C101.365 56.4326 104.756 55.672 107.675 54.9091C108.928 59.5035 109.572 64.2426 109.591 69.0048H96.4958ZM97.5828 56.2378C98.2877 50.5378 99.045 46.6858 99.079 46.5129L99.0797 46.509L100.16 41.1398C100.611 41.0101 101.061 40.8779 101.509 40.7439C101.777 41.1532 102.028 41.5625 102.258 41.9557C104.482 45.7778 106.225 49.8599 107.448 54.1092C104.618 54.8462 101.337 55.5854 97.5828 56.2378ZM94.1257 42.6746C91.7039 43.6457 78.7455 49.7583 78.7455 69.2884V72.7662H82.2553C85.1713 72.7662 86.0782 78.7961 77.7958 79.497C77.4614 78.6944 77.1163 77.9721 76.7712 77.314C72.7209 69.5559 72.4239 63.1354 75.6262 51.8433C76.2964 49.4797 76.5832 47.2021 76.6032 45.0564C82.4975 44.7282 88.3568 43.9318 94.1257 42.6746ZM76.5976 44.2248C76.6038 44.4997 76.6058 44.777 76.6032 45.0564C76.0496 45.0873 75.4957 45.114 74.9415 45.1365H74.9228C74.8128 45.1387 74.7065 45.097 74.6272 45.0208C74.548 44.9445 74.5022 44.8399 74.5001 44.7299C74.498 44.6199 74.5396 44.5136 74.6159 44.4344C74.6921 44.3551 74.7968 44.3094 74.9067 44.3072C75.4707 44.2841 76.0343 44.2566 76.5976 44.2248ZM72.6411 30.4066C77.2236 30.1351 80.8946 29.6359 83.5557 28.9542C85.6264 28.426 87.664 27.7757 89.6579 27.0066C89.6579 27.0066 89.6739 27.0334 89.6846 27.0441L91.1319 28.4513C91.1907 28.5083 91.2653 28.5465 91.3459 28.5609C94.9784 32.0198 98.2303 35.8574 101.046 40.0082C98.9729 40.6208 96.8729 41.196 94.7247 41.6828C88.7621 43.0304 82.6989 43.8805 76.5976 44.2248C76.4586 38.0674 74.1765 33.0828 72.6411 30.4066ZM72.1766 29.6269C72.3205 29.8593 72.4765 30.1197 72.6411 30.4066C72.5477 30.4121 72.454 30.4175 72.3599 30.4229C72.3052 30.4284 72.2499 30.4226 72.1976 30.4057C72.1452 30.3889 72.0969 30.3614 72.0557 30.3249C72.0145 30.2885 71.9813 30.2439 71.9581 30.194C71.935 30.1441 71.9224 30.09 71.9212 30.035C71.9146 29.9254 71.9518 29.8177 72.0245 29.7354C72.0667 29.6877 72.1188 29.6508 72.1766 29.6269ZM67.7997 29.6852C64.5711 29.4289 59.4742 28.8936 56.6484 28.1597C51.9754 26.9734 47.4861 25.1553 43.3045 22.7557C43.3629 22.7225 43.4211 22.6888 43.4792 22.6553L43.4794 22.6552C43.6503 22.5565 43.8204 22.4583 43.992 22.3705C44.0976 22.3138 44.203 22.2565 44.3082 22.1992L44.3082 22.1991C44.496 22.0968 44.6835 21.9947 44.8721 21.897C45.044 21.807 45.2171 21.7184 45.391 21.6295L45.392 21.629C45.5643 21.5409 45.7372 21.4524 45.9101 21.3619C46.2044 21.2148 46.5013 21.0677 46.7983 20.9259C47.1541 20.7573 47.5126 20.5968 47.8684 20.439L48.0066 20.3767L48.0069 20.3765C48.257 20.2637 48.5058 20.1515 48.7565 20.0431C49.0313 19.9267 49.3106 19.8149 49.5899 19.7031L49.5901 19.703C49.6833 19.6657 49.7764 19.6284 49.8694 19.591C49.9354 19.5643 50.0012 19.5376 50.067 19.5108L50.0671 19.5108C50.2921 19.4193 50.5165 19.328 50.7442 19.2432C51.1321 19.096 51.52 18.9596 51.9106 18.8232C51.9997 18.7912 52.0889 18.7587 52.1781 18.7262L52.1781 18.7262L52.1782 18.7262L52.1782 18.7262C52.3728 18.6553 52.5678 18.5842 52.764 18.5182C53.1733 18.3818 53.588 18.2507 54.0026 18.1303C54.0695 18.1089 54.1364 18.0873 54.2032 18.0658L54.2035 18.0657C54.404 18.001 54.6046 17.9363 54.8052 17.8761C55.268 17.7424 55.7335 17.6086 56.199 17.4989C56.2975 17.4734 56.3955 17.4464 56.4934 17.4195L56.4934 17.4194L56.4935 17.4194L56.4935 17.4194L56.4936 17.4194L56.4936 17.4194L56.4938 17.4193L56.4939 17.4193C56.6219 17.3841 56.7498 17.3488 56.8785 17.317C57.574 17.1431 58.2749 16.9853 58.9785 16.8382C66.2499 15.3561 73.7455 15.3561 81.0169 16.8382C81.7205 16.9826 82.4214 17.1431 83.1143 17.317C83.2538 17.3519 83.3923 17.3899 83.5304 17.4277L83.531 17.4279C83.6151 17.451 83.6991 17.474 83.7831 17.4963L83.9322 17.5352C84.3528 17.6449 84.7713 17.7541 85.1876 17.8761C85.3659 17.9279 85.5443 17.9843 85.7226 18.0408C85.8118 18.0691 85.901 18.0973 85.9901 18.1249L86.1797 18.1831L86.18 18.1832L86.1801 18.1833L86.1803 18.1833L86.1804 18.1834L86.1805 18.1834L86.1807 18.1835L86.1808 18.1835L86.1809 18.1835L86.1811 18.1836L86.1812 18.1836L86.1814 18.1837L86.1815 18.1837L86.1816 18.1838L86.1818 18.1838L86.1819 18.1839L86.182 18.1839L86.1822 18.184L86.1823 18.184L86.1824 18.184L86.1826 18.1841L86.1827 18.1841C86.5358 18.2924 86.8882 18.4005 87.2368 18.5182C87.4869 18.6031 87.7329 18.6923 87.9803 18.7819L88.0795 18.8178C88.1891 18.8566 88.2987 18.8945 88.4083 18.9325L88.4084 18.9325C88.6918 19.0306 88.9749 19.1286 89.2566 19.2405C89.4553 19.3159 89.6528 19.3965 89.8499 19.4768L89.8508 19.4772C89.9399 19.5135 90.029 19.5498 90.118 19.5856C90.4952 19.7354 90.8724 19.8852 91.2443 20.0431C91.3837 20.1032 91.5232 20.167 91.6624 20.2307C91.8142 20.3002 91.9657 20.3694 92.1164 20.4336C92.4802 20.5942 92.8414 20.7547 93.1998 20.9259C93.4287 21.0341 93.6559 21.1471 93.8828 21.2599L94.0773 21.3566C94.4278 21.5305 94.7755 21.7044 95.1233 21.8916C95.4174 22.0467 95.7089 22.2071 96.0003 22.3676L96.0008 22.3678C96.2309 22.4936 96.4583 22.6193 96.6856 22.7504C92.5086 25.1535 88.0214 26.9718 83.3497 28.1543C80.6745 28.8365 76.972 29.3207 72.3091 29.5962C72.2631 29.5991 72.2184 29.6096 72.1766 29.6269C71.6833 28.83 71.3327 28.3614 71.2682 28.2774L70.0136 26.6134V26.5947L70.0002 26.576V26.6134L68.7455 28.2774C68.6795 28.3635 68.3127 28.8528 67.7997 29.6852ZM67.3297 30.4781C67.4959 30.1869 67.6537 29.9222 67.7997 29.6852C68.184 29.7157 68.5418 29.7423 68.8661 29.7648C68.9702 29.7758 69.0663 29.8259 69.135 29.9049C69.2038 29.9838 69.2401 30.0859 69.2367 30.1905C69.2333 30.2952 69.1905 30.3947 69.1168 30.469C69.0431 30.5434 68.944 30.5871 68.8394 30.5914H68.8099C68.3716 30.561 67.8726 30.5231 67.3297 30.4781ZM63.4158 44.2319C57.3095 43.8902 51.2412 43.0431 45.2734 41.6989C43.588 41.3163 41.9294 40.8963 40.2895 40.4282C43.5455 35.7056 47.3844 31.4127 51.7153 27.6514C51.7448 27.623 51.77 27.5906 51.7902 27.5551C53.3178 28.0901 54.8694 28.5716 56.4451 28.9702C59.1984 29.6792 64.0591 30.2071 67.3297 30.4781C65.7937 33.1702 63.5498 38.1202 63.4158 44.2319ZM63.4107 45.0604C63.4317 47.204 63.7187 49.48 64.3876 51.8433C67.5978 63.1327 67.2929 69.5666 63.2426 77.314C62.8975 77.9721 62.5524 78.7025 62.218 79.497C52.7344 78.5553 54.8451 72.7662 57.7584 72.7662H61.2629V69.2884C61.2629 49.8246 48.3859 43.6896 45.908 42.685C51.6703 43.9391 57.523 44.7333 63.4107 45.0604ZM63.4107 45.0604C63.408 44.782 63.4098 44.5058 63.4158 44.2319C63.8457 44.2559 64.2759 44.2775 64.7062 44.2965C64.7603 44.2989 64.8134 44.312 64.8625 44.3349C64.9115 44.3579 64.9556 44.3903 64.9921 44.4303C65.0287 44.4703 65.0569 44.5171 65.0753 44.5681C65.0938 44.619 65.1019 44.6731 65.0994 44.7272C65.0988 44.7821 65.087 44.8362 65.0647 44.8862C65.0424 44.9363 65.0101 44.9813 64.9697 45.0184C64.9294 45.0555 64.8818 45.0839 64.8301 45.102C64.7783 45.12 64.7234 45.1272 64.6687 45.1232C64.2492 45.1046 63.8299 45.0837 63.4107 45.0604ZM94.1257 42.6746C94.3183 42.5974 94.4443 42.5526 94.4918 42.5363L100.281 40.5406L100.16 41.1398C98.4339 41.6366 96.6863 42.0984 94.9066 42.5015C94.6465 42.5601 94.3862 42.6178 94.1257 42.6746ZM97.5828 56.2378C97.5478 56.5208 97.5129 56.8084 97.4782 57.1003C97.1263 57.1608 96.7702 57.2205 96.4101 57.2793C96.3879 57.2819 96.3654 57.2819 96.3432 57.2793C96.2343 57.2882 96.1263 57.2534 96.043 57.1827C95.9598 57.112 95.908 57.011 95.8991 56.9021C95.8903 56.7932 95.925 56.6852 95.9958 56.602C96.0665 56.5187 96.1674 56.4669 96.2763 56.458C96.718 56.3858 97.1535 56.3124 97.5828 56.2378ZM96.4958 69.0048C96.4838 69.2794 96.4726 69.555 96.4623 69.8314H94.9708V69.0048H96.4958ZM96.6395 81.9475C96.661 82.2293 96.6839 82.5105 96.7082 82.791C96.366 82.7464 96.0196 82.7024 95.6691 82.6591C95.5603 82.6457 95.4612 82.5898 95.3935 82.5035C95.3259 82.4173 95.2951 82.3078 95.3079 82.1989C95.3245 82.0911 95.3816 81.9936 95.4677 81.9265C95.5537 81.8594 95.6621 81.8276 95.7707 81.8378C96.0632 81.8739 96.3528 81.9105 96.6395 81.9475ZM64.707 109.128C65.133 109.073 65.5299 109.024 65.8859 108.983C65.9951 108.971 66.1046 109.002 66.1907 109.071C66.2768 109.139 66.3327 109.238 66.3461 109.347C66.354 109.401 66.3511 109.456 66.3376 109.509C66.3241 109.562 66.3002 109.611 66.2674 109.655C66.2345 109.698 66.1933 109.735 66.1462 109.763C66.0991 109.79 66.047 109.808 65.9929 109.815C65.7786 109.84 65.5493 109.867 65.3077 109.897C65.101 109.643 64.9008 109.386 64.707 109.128ZM64.707 109.128C62.0213 109.477 58.1776 110.085 56.1134 110.639C56.078 110.639 56.0428 110.645 56.009 110.655C54.5216 111.046 53.0663 111.509 51.6164 112.022C51.6081 112.008 51.5982 111.994 51.5869 111.982C48.1091 108.932 43.2563 103.956 40.03 99.1598C40.3463 99.0705 40.6633 98.9823 40.981 98.8954L45.3642 98.1165C50.1117 97.2786 54.9011 96.6981 59.7113 96.3776C60.2072 100.693 61.6843 105.105 64.707 109.128ZM40.0282 98.3091L39.7944 99.1063L40.981 98.8954C42.3108 98.5316 43.6541 98.1893 45.0166 97.8783C45.1121 97.8441 45.1918 97.776 45.2405 97.6869C45.2891 97.5978 45.3035 97.494 45.2807 97.3951C45.258 97.2962 45.1997 97.209 45.117 97.1502C45.0343 97.0913 44.9329 97.0649 44.832 97.0758C43.2069 97.448 41.6083 97.8645 40.0282 98.3091ZM43.2988 82.8207C39.5863 83.3861 36.3356 84.0317 33.5185 84.6976C34.7508 89.0969 36.537 93.3219 38.8342 97.2711C39.0616 97.659 39.305 98.0496 39.5565 98.4428C39.7136 98.398 39.8708 98.3534 40.0282 98.3091L41.3781 93.7077C42.3596 90.3633 42.9648 86.6515 43.2988 82.8207ZM43.3683 81.9725C43.8623 81.8976 44.3645 81.8241 44.8748 81.7522C44.9833 81.7397 45.0923 81.7694 45.1795 81.8352C45.2666 81.9009 45.3252 81.9976 45.343 82.1053C45.3575 82.2141 45.3286 82.3242 45.2625 82.4118C45.1964 82.4995 45.0984 82.5575 44.9898 82.5735C44.4159 82.654 43.8522 82.7365 43.2988 82.8207C43.3234 82.5386 43.3466 82.2558 43.3683 81.9725ZM43.3683 81.9725C39.5451 82.5519 36.206 83.2148 33.2992 83.8923C32.1045 79.3609 31.4994 74.6943 31.4988 70.008V69.8314H43.5482C43.6967 73.7983 43.6771 77.9407 43.3683 81.9725ZM43.5148 69.0048H45.3028V69.8314H43.5482C43.5379 69.555 43.5267 69.2794 43.5148 69.0048ZM43.5148 69.0048H31.5202C31.5998 64.5395 32.2288 60.1009 33.3928 55.7892C36.086 56.3921 39.1416 56.9788 42.5793 57.4964C42.974 60.8886 43.3336 64.8375 43.5148 69.0048ZM42.4777 56.642C43.0604 56.7308 43.6543 56.8176 44.2595 56.9021C44.3135 56.909 44.3655 56.9266 44.4126 56.9538C44.4597 56.9811 44.5009 57.0174 44.5338 57.0608C44.5667 57.1041 44.5906 57.1536 44.6041 57.2062C44.6176 57.2589 44.6205 57.3138 44.6126 57.3676C44.5985 57.4662 44.5494 57.5564 44.4742 57.6217C44.3991 57.687 44.3029 57.7231 44.2033 57.7234H44.1445C43.6142 57.6494 43.0925 57.5737 42.5793 57.4964C42.5456 57.2075 42.5118 56.9226 42.4777 56.642ZM42.4777 56.642C39.1708 56.1384 36.224 55.5716 33.6175 54.9894C34.8909 50.5462 36.7305 46.2853 39.091 42.3115C39.2629 42.0231 39.455 41.7268 39.6484 41.4287C39.7079 41.337 39.7675 41.2451 39.8267 41.1532C39.8328 41.1549 39.8388 41.1566 39.8449 41.1583L40.9313 46.509L40.9321 46.5129C40.9668 46.6893 41.7593 50.7201 42.4777 56.642ZM45.0915 42.5041C45.3635 42.5655 45.6356 42.6258 45.908 42.685C45.7025 42.6017 45.5685 42.5537 45.5193 42.5363L39.7195 40.5406L39.8449 41.1583C41.5698 41.6459 43.3107 42.1016 45.0915 42.5041ZM111.116 105.404C110.889 105.664 110.658 105.921 110.427 106.177C110.35 106.262 110.272 106.348 110.195 106.434C110.041 106.588 109.897 106.752 109.753 106.916L109.753 106.916C109.648 107.035 109.542 107.155 109.433 107.271C109.15 107.57 108.859 107.861 108.567 108.153L108.567 108.153L108.567 108.153L108.567 108.153L108.567 108.153L108.567 108.153L108.567 108.153L108.567 108.153L108.567 108.153L108.567 108.153L108.567 108.153L108.567 108.153L108.567 108.153L108.567 108.153L108.567 108.153L108.567 108.153L108.567 108.153L108.567 108.154L108.566 108.154L108.457 108.264C108.323 108.397 108.194 108.531 108.065 108.665C107.936 108.798 107.807 108.932 107.673 109.066C107.395 109.335 107.109 109.597 106.822 109.859L106.629 110.035L106.428 110.218C106.228 110.401 106.027 110.584 105.827 110.762C105.521 111.032 105.207 111.293 104.892 111.553L104.703 111.709C104.589 111.803 104.474 111.899 104.359 111.994L104.359 111.995C104.206 112.122 104.053 112.249 103.901 112.373C103.497 112.694 103.082 113.004 102.668 113.314L102.667 113.314C102.527 113.415 102.396 113.518 102.267 113.619L102.266 113.62C102.149 113.712 102.032 113.803 101.91 113.892C101.495 114.195 101.071 114.484 100.647 114.774L100.5 114.874C100.397 114.943 100.296 115.015 100.194 115.086L100.193 115.086C100.078 115.167 99.9628 115.248 99.8451 115.326C99.211 115.743 98.5663 116.145 97.9136 116.538C95.2587 114.945 92.4704 113.587 89.5803 112.477C93.3256 109.192 98.0928 104.112 101.258 99.5691C105.103 100.695 108.872 102.067 112.542 103.676C112.356 103.909 112.168 104.137 111.98 104.365L111.846 104.529C111.613 104.812 111.365 105.115 111.116 105.404ZM108.173 84.8046L108.182 84.8065C106.893 89.196 105.059 93.4068 102.724 97.3406C102.432 97.8302 102.108 98.3358 101.766 98.8468C105.617 99.9915 109.39 101.382 113.063 103.009C116.326 98.7609 118.94 94.0522 120.821 89.0368C120.024 88.5955 116.22 86.6465 108.182 84.8065L108.184 84.7992L108.173 84.8046ZM121.11 88.2503C120.04 87.6644 116.233 85.7837 108.408 83.9994C109.688 79.3799 110.361 74.6138 110.412 69.8207H124.246V69.9973C124.259 76.2141 123.202 82.3868 121.121 88.2449L121.11 88.2503ZM73.9643 129.408C74.419 129.344 74.8819 129.439 75.2752 129.676C75.4305 129.791 75.5568 129.941 75.6441 130.114C75.7314 130.287 75.7773 130.477 75.7781 130.671C75.8037 130.866 75.7836 131.064 75.7196 131.249C75.6555 131.435 75.5492 131.603 75.4089 131.741C75.0528 132.032 74.6063 132.19 74.1462 132.188L72.6321 132.287L72.4528 129.507L73.9643 129.408ZM14.7626 98.0572C14.9408 98.1351 15.1346 98.171 15.3289 98.1622C15.5233 98.1534 15.713 98.1001 15.8835 98.0064C16.0637 97.9339 16.2244 97.8201 16.3526 97.6742C16.4809 97.5283 16.5731 97.3544 16.6218 97.1664C16.6993 96.7142 16.618 96.2492 16.3918 95.8502L15.7363 94.4805L13.2243 95.6843L13.8771 97.0513C14.0473 97.4788 14.3601 97.8342 14.7626 98.0572ZM9.70072 49.8536C9.84035 49.8373 9.98185 49.8547 10.1134 49.9043C10.2499 49.938 10.3762 50.0042 10.4815 50.0974C10.5869 50.1906 10.668 50.3079 10.718 50.4394C10.8094 50.7647 10.7935 51.1109 10.6725 51.4265L10.1562 53.0851L8.25946 52.4966L8.77578 50.838C8.85604 50.5064 9.04425 50.2109 9.31082 49.9979C9.42739 49.9194 9.56109 49.8699 9.70072 49.8536ZM90.3447 127.175C90.0359 126.89 89.6495 126.704 89.2345 126.64C88.7713 126.575 88.2995 126.62 87.8568 126.771L86.2516 127.29L87.7123 131.854L89.3174 131.338C89.7662 131.203 90.1769 130.965 90.5159 130.642C90.818 130.353 91.0267 129.98 91.1152 129.572C91.1933 129.138 91.1639 128.692 91.0296 128.272C90.8952 127.852 90.6601 127.472 90.3447 127.164V127.175ZM11.6567 51.4661C11.9296 50.5905 12.3897 50.2525 13.0371 50.4522C13.6988 50.6573 13.8932 51.2013 13.6203 52.0841L13.0264 53.9915L11.0628 53.3816L11.6567 51.4661ZM118.743 29.0693L115.564 30.035L117.255 32.0441L118.743 29.0693ZM53.4374 12.9938C53.0301 12.8884 52.6599 12.6727 52.3673 12.3705C52.0665 12.0482 51.85 11.6566 51.737 11.2305C51.6241 10.8044 51.6182 10.357 51.7199 9.92802C51.8249 9.52001 52.0417 9.14941 52.3459 8.85793C52.6673 8.55931 53.0572 8.34431 53.4812 8.23188C53.9053 8.11945 54.3505 8.11304 54.7776 8.21321C55.1849 8.31863 55.5551 8.53431 55.8477 8.83653C56.1485 9.1588 56.365 9.5504 56.478 9.97651C56.5909 10.4026 56.5968 10.8501 56.4951 11.279C56.3901 11.687 56.1733 12.0576 55.8691 12.3491C55.553 12.6544 55.1616 12.8704 54.7348 12.9751C54.3114 13.0947 53.864 13.1012 53.4374 12.9938ZM66.8967 129.727C66.5249 129.494 66.1016 129.356 65.664 129.325C65.2264 129.294 64.788 129.372 64.3873 129.55C64.0065 129.726 63.6816 130.004 63.4483 130.353C63.2132 130.726 63.0737 131.151 63.0425 131.59C63.0112 132.03 63.089 132.471 63.2691 132.873C63.4486 133.256 63.7311 133.581 64.085 133.812C64.4567 134.045 64.8801 134.183 65.3176 134.214C65.7552 134.244 66.1937 134.167 66.5944 133.988C66.975 133.813 67.2992 133.535 67.5307 133.186C67.7679 132.814 67.9085 132.389 67.9398 131.949C67.9711 131.509 67.8921 131.068 67.7099 130.666C67.5314 130.283 67.2497 129.958 66.8967 129.727ZM36.2599 119.317L35.6205 122.581L33.4563 121.096L36.2599 119.317ZM113.081 26.1906C113.274 26.188 113.463 26.1466 113.639 26.0689C113.815 25.9911 113.973 25.8787 114.104 25.7383C114.235 25.5978 114.337 25.4323 114.402 25.2517C114.468 25.0711 114.496 24.8791 114.486 24.6872C114.391 24.2382 114.146 23.8352 113.79 23.5449L112.683 22.5095L110.786 24.5374L111.894 25.5727C112.208 25.9077 112.627 26.1257 113.081 26.1906ZM130.241 59.7829C130.402 60.6872 130.15 61.2008 129.481 61.3185C128.794 61.4416 128.371 61.0537 128.208 60.1602L127.855 58.1965L129.885 57.8193L130.241 59.7829ZM123.555 98.8013C123.393 98.6952 123.208 98.628 123.016 98.6053C122.823 98.5826 122.628 98.6048 122.445 98.6702C122.029 98.8632 121.693 99.1939 121.493 99.6066L120.736 100.923L123.143 102.311L123.898 100.995C124.155 100.614 124.27 100.155 124.224 99.6975C124.188 99.507 124.109 99.3272 123.994 99.1719C123.878 99.0166 123.728 98.8898 123.555 98.8013ZM26.4317 28.5606C26.9471 29.0225 26.898 29.5959 26.2845 30.2807L24.9469 31.7655L23.4167 30.3904L24.7543 28.9057C25.3571 28.2137 25.9162 28.0986 26.4317 28.5606ZM134.075 58.9377C134.226 59.5669 134.179 60.2273 133.941 60.8291C133.833 61.0649 133.668 61.2697 133.459 61.4245C133.251 61.5793 133.008 61.6791 132.751 61.7146C132.422 61.7816 132.081 61.749 131.772 61.6209C131.466 61.4864 131.209 61.2614 131.036 60.9762C131.018 61.3834 130.869 61.7738 130.61 62.0891C130.284 62.4275 129.84 62.6284 129.37 62.6508C128.9 62.6731 128.44 62.5153 128.082 62.2095C127.669 61.8242 127.385 61.2089 127.232 60.3636L126.646 57.1025L133.521 55.8639L134.075 58.9377ZM133.457 70.9949L131.536 72.9103L129.618 70.9922L131.536 69.0741L133.457 70.9949ZM132.855 53.3813L126.121 55.2539L125.782 54.0233L132.515 52.1507L132.855 53.3813ZM129.982 44.9035L124.49 47.0303L125.763 50.3155L131.255 48.1887L131.721 49.3899L126.228 51.5086L126.603 52.4771L124.145 53.4268L123.711 52.3112L125.145 51.7547L123.005 46.2251L129.522 43.7024L129.982 44.9035ZM125.14 41.3883L127.657 39.9785L128.291 41.1101L122.194 44.5263L121.56 43.392L124.174 41.9287L122.408 38.7773L119.795 40.2406L119.161 39.109L125.257 35.6928L125.891 36.8271L123.374 38.2342L125.14 41.3883ZM125.14 32.5173C125.296 32.5509 125.433 32.6425 125.525 32.7735C125.616 32.9046 125.654 33.0654 125.632 33.2236C125.615 33.3031 125.583 33.3787 125.537 33.4457C125.491 33.5128 125.433 33.57 125.364 33.6141C125.3 33.6605 125.227 33.6936 125.15 33.7115C125.073 33.7294 124.993 33.7318 124.915 33.7185C124.759 33.6854 124.621 33.5939 124.53 33.4626C124.439 33.3313 124.401 33.1702 124.425 33.0122C124.439 32.9344 124.469 32.8602 124.512 32.7943C124.556 32.7285 124.613 32.6724 124.68 32.6297C124.745 32.5793 124.82 32.5431 124.9 32.5233C124.98 32.5035 125.064 32.5006 125.145 32.5146L125.14 32.5173ZM123.596 31.0326C123.661 30.9839 123.735 30.9491 123.813 30.9303C123.892 30.9114 123.974 30.9089 124.054 30.9229C124.21 30.9553 124.347 31.0463 124.438 31.1772C124.53 31.308 124.567 31.4688 124.543 31.6264C124.525 31.7466 124.47 31.8583 124.387 31.9469C124.304 32.0355 124.196 32.0968 124.077 32.1229C123.959 32.1489 123.835 32.1385 123.722 32.0928C123.61 32.0472 123.513 31.9685 123.446 31.8672C123.399 31.8032 123.366 31.7304 123.348 31.6532C123.33 31.5759 123.328 31.4959 123.342 31.4178C123.356 31.3398 123.386 31.2654 123.43 31.1992C123.473 31.133 123.53 31.0763 123.596 31.0326ZM123.813 33.582L118.061 37.5708L117.32 36.5007L123.061 32.5146L123.813 33.582ZM119.345 27.7527L120.169 28.7292L116.857 35.6419L115.982 34.604L116.769 33.0283L114.519 30.3531L112.836 30.8694L111.962 29.8394L119.345 27.7527ZM114.599 22.7849C115.004 23.1454 115.328 23.5876 115.549 24.0824C115.738 24.5013 115.796 24.9673 115.718 25.42C115.615 25.8742 115.393 26.2928 115.074 26.6327C114.756 26.9726 114.353 27.2217 113.906 27.3541C113.463 27.4639 112.997 27.4378 112.569 27.2792C112.059 27.0911 111.595 26.7976 111.207 26.4178L110.057 25.3477L108.679 26.8218L107.732 25.9336L112.505 20.832L114.599 22.7849ZM107.376 16.8807L105.643 19.2375L106.713 20.0401L110.068 18.871L111.178 19.6736L107.251 20.9871L107.111 25.3558L105.94 24.489L106.036 20.9042L104.99 20.1337L103.246 22.5067L102.194 21.7522L106.333 16.1343L107.376 16.8807ZM96.943 17.4157C97.0973 17.5912 97.2778 17.7419 97.478 17.8625C97.6679 17.9639 97.8815 18.0125 98.0966 18.0031C98.3117 17.9937 98.5203 17.9266 98.7006 17.809L98.8798 17.7153L99.0243 11.8085L100.231 12.4933L100.009 17.0813L103.88 14.5586L104.99 15.19L99.5647 18.6035C99.1518 18.8828 98.677 19.0572 98.1816 19.1118C97.7538 19.1491 97.3247 19.0558 96.951 18.8443C96.6444 18.6669 96.3769 18.4294 96.1645 18.1461L96.943 17.4157ZM87.8927 11.1343C88.1038 10.5204 88.4795 9.97619 88.9789 9.5613C89.4663 9.16148 90.0537 8.90246 90.6776 8.81224C91.3369 8.71614 92.0097 8.78885 92.6332 9.02359C93.1396 9.19691 93.6062 9.46978 94.0056 9.82615C94.3751 10.1637 94.6601 10.5834 94.8376 11.0514L93.7809 11.5089C93.6496 11.1827 93.4498 10.8885 93.1951 10.6462C92.9403 10.4039 92.6365 10.2191 92.3041 10.1044C91.8841 9.94401 91.4298 9.89516 90.9853 9.96259C90.5674 10.0279 90.1758 10.2075 89.8536 10.4816C89.5189 10.7731 89.267 11.1477 89.1233 11.5677C88.9648 11.9817 88.9196 12.4305 88.9922 12.8679C89.0626 13.2849 89.2479 13.674 89.5273 13.9915C89.826 14.3273 90.2066 14.5798 90.6321 14.7245C90.9618 14.8493 91.3147 14.9008 91.6663 14.8754C92.0179 14.85 92.3597 14.7483 92.668 14.5773L93.1843 15.6153C92.7472 15.8603 92.2589 15.9995 91.7584 16.0219C91.2198 16.0452 90.6821 15.9596 90.1773 15.7705C89.5474 15.5535 88.983 15.1797 88.5374 14.6843C88.1155 14.2171 87.8312 13.642 87.7162 13.023C87.602 12.388 87.664 11.7339 87.8954 11.1317L87.8927 11.1343ZM82.3657 6.20659L87.3363 7.35693L87.0902 8.42702L83.385 7.56827L82.9757 9.33659L86.2608 10.099L86.0201 11.1397L82.7349 10.3772L82.2989 12.2499L86.1431 13.1327L85.897 14.2028L80.7927 13.0097L82.3657 6.20659ZM74.6076 5.17663L77.4781 5.49498C78.0185 5.54243 78.5428 5.70381 79.0164 5.9685C79.4167 6.18948 79.7412 6.52604 79.9473 6.93425C80.1373 7.35976 80.2104 7.8282 80.1592 8.29136C80.1079 8.75452 79.9341 9.19565 79.6557 9.56933C79.3645 9.92455 78.9729 10.1837 78.5322 10.313C78.0118 10.4667 77.4648 10.5087 76.927 10.4361L75.3594 10.2595L75.1346 12.2659L73.8452 12.1215L74.6076 5.17663ZM71.6863 5.08835L71.7104 3.65176L72.9089 3.67049L72.8661 6.20391L69.4043 6.15041L69.308 12.0359L68.0293 12.0145L68.1443 5.0295L71.6863 5.08835ZM60.4611 5.71703L60.7982 8.58218L64.3856 8.1702L64.0486 5.30504L65.338 5.15256L66.1406 12.0921L64.8511 12.2445L64.5033 9.26971L60.9132 9.69239L61.2637 12.6646L59.9742 12.817L59.1583 5.87754L60.4611 5.71703ZM50.4745 9.66029C50.6448 9.05089 50.981 8.50075 51.4456 8.07121C51.9445 7.62372 52.5424 7.30092 53.1902 7.12932C53.838 6.95772 54.5172 6.94221 55.1722 7.08406C55.7863 7.22862 56.3494 7.53749 56.8014 7.97758C57.2559 8.43932 57.5823 9.01151 57.7483 9.63776C57.9144 10.264 57.9144 10.9227 57.7484 11.549C57.5748 12.1568 57.238 12.7054 56.7747 13.1354C56.276 13.5832 55.6781 13.906 55.0301 14.0771C54.3822 14.2483 53.7028 14.2629 53.0481 14.1199C52.4318 13.9762 51.8671 13.6651 51.4162 13.221C50.9627 12.761 50.6372 12.1904 50.472 11.5658C50.3068 10.9413 50.3077 10.2844 50.4745 9.66029ZM44.0192 10.404L45.1268 13.1113L46.3654 12.603L47.1145 9.13862L48.3879 8.60358L47.4622 12.6405L51.1193 15.0482L49.7603 15.6046L46.7533 13.6544L45.5522 14.1466L46.6677 16.87L45.4799 17.3542L42.8315 10.8882L44.0192 10.404ZM33.1739 14.1065C33.2281 14.1984 33.3016 14.2773 33.3894 14.3378C33.4772 14.3984 33.5771 14.439 33.6822 14.4569C33.9207 14.4759 34.1581 14.4084 34.351 14.267C34.5631 14.1482 34.7268 13.9589 34.8139 13.732C34.8451 13.6291 34.8532 13.5205 34.8374 13.4141C34.8217 13.3077 34.7826 13.2061 34.7229 13.1167L35.48 12.6324C35.5958 12.7998 35.6719 12.9914 35.7025 13.1926C35.7331 13.3938 35.7174 13.5993 35.6565 13.7935C35.4435 14.2195 35.1191 14.5799 34.7178 14.8366C34.3166 15.0933 33.8534 15.2366 33.3773 15.2515C33.1744 15.2236 32.9806 15.1496 32.8108 15.035C32.6411 14.9205 32.4999 14.7685 32.3981 14.5907L33.1739 14.1065ZM33.4281 16.2146L36.1033 20.3986L36.6009 14.2001L37.6201 13.55L41.3654 19.4355L40.2954 20.123L37.6362 15.947L37.1306 22.1402L36.114 22.7902L32.3687 16.9048L33.4281 16.2146ZM26.2746 21.8325L29.4848 25.6072L29.121 19.4061L30.0386 18.6222L34.5865 23.9352L33.6127 24.7645L30.4024 21.0005L30.7636 27.2017L29.8326 27.9668L25.2847 22.6511L26.2746 21.8325ZM21.7267 26.3937C22.1294 25.8869 22.6803 25.5184 23.3024 25.3397C23.5546 25.28 23.8178 25.285 24.0675 25.3542C24.3173 25.4234 24.5455 25.5546 24.731 25.7356C24.988 25.9526 25.1743 26.2414 25.266 26.565C25.3457 26.8887 25.3261 27.2289 25.2098 27.5414C25.5418 27.3068 25.9404 27.1849 26.3468 27.1936C26.8145 27.2448 27.2451 27.4722 27.5512 27.8294C27.8573 28.1867 28.0159 28.6471 27.9947 29.1171C27.9439 29.6816 27.6336 30.2808 27.0584 30.9202L24.846 33.3867L19.6454 28.7158L21.7267 26.3937ZM15.2634 35.4012C15.3458 34.7362 15.5853 34.1005 15.9621 33.5464C16.3389 32.9924 16.8422 32.536 17.4303 32.215C17.9882 31.9196 18.6167 31.7836 19.2468 31.8217C19.892 31.8742 20.5126 32.0931 21.0481 32.4569C21.5835 32.8207 22.0155 33.3172 22.3019 33.8977C22.5691 34.4701 22.6737 35.105 22.6042 35.7329C22.5216 36.3975 22.2824 37.0329 21.9061 37.5868C21.5298 38.1408 21.0273 38.5974 20.4399 38.9191C19.8795 39.2152 19.248 39.3504 18.6154 39.3097C17.9717 39.2593 17.3522 39.0417 16.8183 38.6786C16.2844 38.3154 15.8545 37.8192 15.5711 37.239C15.2996 36.6669 15.1931 36.0305 15.2634 35.4012ZM13.3132 37.865L14.2896 38.3653L13.2195 40.4252L18.4603 43.1031L17.8717 44.2481L12.6444 41.5595L11.5903 43.6114L10.6139 43.1085L13.3132 37.865ZM10.0066 44.6467L16.4592 47.3219L15.9697 48.5044L9.51706 45.8291L10.0066 44.6467ZM7.86645 50.4412C8.02378 49.8166 8.37046 49.2559 8.85895 48.8361C9.0632 48.6765 9.30462 48.5715 9.56057 48.5308C9.81653 48.4901 10.0786 48.515 10.3223 48.6033C10.6434 48.69 10.9296 48.8743 11.1414 49.1307C11.3532 49.3871 11.4802 49.7029 11.5047 50.0346C11.7073 49.6821 12.019 49.4051 12.3929 49.2454C12.8402 49.0973 13.3271 49.1256 13.7542 49.3245C14.1813 49.5234 14.5164 49.8779 14.6909 50.3155C14.8817 50.8505 14.8496 51.5274 14.5946 52.346L13.6101 55.5107L6.93013 53.4241L7.86645 50.4412ZM5.83597 58.0923C5.91876 57.5589 6.10995 57.0482 6.39776 56.5915C6.66835 56.1694 7.03505 55.8174 7.46784 55.5642L8.09652 56.5273C7.79423 56.7122 7.53574 56.9607 7.33896 57.2554C7.14218 57.5501 7.01181 57.884 6.95688 58.2341C6.87014 58.6744 6.89871 59.1297 7.03981 59.5557C7.17838 59.9589 7.42779 60.315 7.75944 60.5829C8.10661 60.858 8.51665 61.0426 8.95276 61.1201C9.38886 61.1976 9.83739 61.1656 10.2581 61.027C10.657 60.8859 11.0083 60.6356 11.272 60.3047C11.5517 59.9535 11.736 59.5361 11.807 59.0928C11.8744 58.7467 11.8655 58.39 11.7809 58.0477C11.6964 57.7053 11.5382 57.3855 11.3175 57.1105L12.2511 56.423C12.5676 56.8123 12.7884 57.2705 12.8958 57.7606C13.0101 58.2889 13.0165 58.8349 12.9146 59.3657C12.8057 60.0247 12.5294 60.6447 12.112 61.1661C11.7244 61.6616 11.2066 62.0395 10.6166 62.2576C10.0061 62.4727 9.35023 62.5258 8.71306 62.4119C8.07589 62.298 7.47912 62.0208 6.98096 61.6075C6.50313 61.1989 6.14683 60.6668 5.951 60.0693C5.74173 59.4316 5.69936 58.751 5.82794 58.0923H5.83597ZM10.7717 70.3314L8.8536 72.2522L6.93548 70.3314L8.8536 68.4133L10.7717 70.3314ZM5.66743 82.1023C5.48908 81.1553 5.61927 80.367 6.05801 79.7375C6.49674 79.1079 7.21013 78.7022 8.19818 78.5202L12.0746 77.806L12.3073 79.0633L8.47907 79.7669C7.13077 80.0166 6.56451 80.7237 6.78031 81.8883C6.99612 83.0529 7.77638 83.5077 9.12112 83.2527L12.9494 82.5464L13.1821 83.8038L9.30304 84.5181C8.31143 84.6964 7.49905 84.5742 6.86592 84.1516C6.23279 83.7289 5.83062 83.0431 5.6594 82.0943L5.66743 82.1023ZM8.58876 92.5919L10.5978 89.3388L9.17195 88.6406L7.47319 89.197L7.06924 87.9637L13.7091 85.7861L14.1131 87.0194L10.7022 88.135L15.1912 90.2992L15.6433 91.685L11.7723 89.8712L9.06227 94.0445L8.58876 92.5919ZM11.8365 99.9861L13.0671 97.8139C13.0208 97.7369 12.9788 97.6574 12.9413 97.5758L12.2591 96.1526L10.4347 97.0327L9.87286 95.861L16.1757 92.846L17.417 95.4383C17.6635 95.9222 17.8048 96.4528 17.8316 96.9953C17.8539 97.4526 17.7393 97.9062 17.5026 98.2981C17.2493 98.6919 16.8867 99.0033 16.4592 99.1943C16.0317 99.4139 15.5473 99.4979 15.0708 99.4351C14.6015 99.358 14.1672 99.1385 13.8268 98.8064L12.4518 101.246L11.8365 99.9861ZM16.5181 107.744L17.4945 106.278L15.5871 103.336L13.8562 103.675L13.1259 102.554L20.6994 101.377L21.395 102.447L17.2591 108.892L16.5181 107.744ZM18.4576 110.286L23.9231 105.93L24.7256 106.944L19.2629 111.308L18.4576 110.286ZM24.6588 117.204L25.3516 111.142L21.9675 114.456L21.0659 113.533L26.0659 108.654L26.8123 109.416L26.1194 115.478L29.5036 112.174L30.4051 113.095L25.4158 117.977L24.6588 117.204ZM27.5801 119.815L32.0637 114.464L33.0589 115.299L28.5753 120.649L27.5801 119.815ZM36.1809 126.152L35.06 125.385L35.3997 123.656L32.5185 121.679L31.0338 122.632L29.9343 121.867L36.4778 117.883L37.5319 118.608L36.1809 126.152ZM43.5243 129.938L42.5693 129.459L41.2317 123.501L39.1236 127.752L37.9706 127.174L41.1006 120.928L42.0556 121.407L43.3933 127.362L45.512 123.129L46.6624 123.707L43.5243 129.938ZM57.414 134.296L56.0764 133.969L55.627 128.555L52.6843 133.161L51.3467 132.832L50.7554 125.494L52.0663 125.813L52.4916 131.385L55.5066 126.655L56.6703 126.939L57.1198 132.557L60.124 127.795L61.3252 128.087L57.414 134.296ZM69.2438 132.033C69.2081 132.681 68.9943 133.306 68.6258 133.841C68.2653 134.359 67.7693 134.768 67.1919 135.023C66.5757 135.286 65.9059 135.399 65.2376 135.353C64.5693 135.306 63.9215 135.102 63.3477 134.756C62.8113 134.421 62.378 133.944 62.0956 133.378C61.8165 132.795 61.6943 132.149 61.7412 131.505C61.7881 130.86 62.0025 130.239 62.3632 129.702C62.7231 129.181 63.2204 128.77 63.7998 128.515C64.4156 128.252 65.0849 128.139 65.7528 128.186C66.4206 128.232 67.0679 128.437 67.6414 128.782C68.1765 129.117 68.6081 129.594 68.888 130.16C69.1771 130.739 69.3002 131.387 69.2438 132.033ZM58.7329 124.381C49.4571 122.457 40.8275 118.193 33.6646 111.993C26.5016 105.794 21.0434 97.8648 17.8089 88.9608C14.5743 80.0569 13.6709 70.4735 15.1845 61.1219C16.6981 51.7704 20.5784 42.9613 26.4565 35.5323C26.6197 35.3263 26.7882 35.1257 26.9567 34.9251L26.9568 34.925L27.5132 34.2562L27.5897 34.1628L27.5898 34.1627L27.5899 34.1626L27.5899 34.1625L27.59 34.1625L27.5904 34.162C27.7601 33.9548 27.9306 33.7467 28.1071 33.5446C28.3104 33.3118 28.4763 33.1299 28.6662 32.9266L29.228 32.3086L29.3478 32.1761L29.3641 32.1581L29.3673 32.1545L29.3676 32.1542L29.3676 32.1541L29.3677 32.1541L29.3677 32.154L29.3678 32.154L29.3678 32.1539L29.3679 32.1539L29.3679 32.1538C29.5293 31.9749 29.6906 31.7961 29.8567 31.6238C30.0707 31.4017 30.2499 31.2225 30.4479 31.0272L31.0739 30.4012C31.2772 30.1952 31.4805 29.9892 31.6919 29.7886C31.9032 29.5879 32.136 29.3766 32.3607 29.176L33.0081 28.5847L33.0791 28.5194C33.2529 28.3594 33.4257 28.2004 33.6047 28.0497C33.808 27.8785 34.0942 27.6377 34.343 27.4344L35.0279 26.8699C35.2178 26.7094 35.4051 26.5516 35.5977 26.3991C35.8083 26.2285 36.0306 26.0645 36.2526 25.9006L36.2527 25.9006C36.3127 25.8563 36.3726 25.8121 36.4324 25.7677L37.1119 25.2568C37.1936 25.194 37.2754 25.1343 37.3577 25.0743C37.4611 24.9988 37.5652 24.9229 37.671 24.8394C37.9391 24.6469 38.2131 24.4623 38.488 24.2771L38.4881 24.277L38.4882 24.277L38.4883 24.2769L38.4884 24.2768L38.4885 24.2767L38.4887 24.2766L38.4888 24.2766L38.626 24.184L39.2815 23.7399C39.4607 23.6142 39.6373 23.4938 39.8165 23.3734C40.5361 22.9079 41.2825 22.4478 42.0369 22.0064C45.9166 19.7426 50.057 17.9585 54.367 16.6934C55.7982 16.2734 57.2642 15.9069 58.7195 15.6046C66.1626 14.0922 73.8338 14.0922 81.2769 15.6046C93.6125 18.1635 104.711 24.8414 112.75 34.5414C120.789 44.2414 125.29 56.3869 125.514 68.9831L125.536 69.9943C125.538 82.7661 121.139 95.1486 113.08 105.056C105.02 114.964 93.7925 121.792 81.2876 124.389C73.8459 125.906 66.1746 125.906 58.7329 124.389V124.381ZM76.1031 135.154L74.5461 133.207C74.5161 133.207 74.4779 133.212 74.432 133.218L74.4318 133.218L74.4309 133.218C74.3869 133.223 74.3359 133.23 74.2786 133.234L72.7029 133.338L72.8366 135.368L71.5418 135.454L71.087 128.48L73.9549 128.293C74.4977 128.246 75.0442 128.312 75.56 128.488C75.9936 128.642 76.3716 128.921 76.6461 129.29C76.9178 129.672 77.0721 130.125 77.0902 130.593C77.1344 131.073 77.0318 131.554 76.7959 131.974C76.5508 132.38 76.1852 132.701 75.7499 132.891L77.5049 135.077L76.1031 135.154ZM79.8484 134.697L78.575 127.827L79.851 127.589L80.9211 133.381L84.538 132.725L84.736 133.795L79.8484 134.697ZM92.3657 129.767C92.2213 130.37 91.9053 130.918 91.4561 131.345C90.9584 131.82 90.3551 132.17 89.6958 132.367L86.7879 133.298L84.6477 126.642L87.5556 125.711C88.2063 125.489 88.9 125.423 89.5808 125.518C90.1955 125.606 90.7716 125.87 91.2394 126.278C91.7067 126.714 92.0546 127.263 92.2498 127.872C92.4451 128.481 92.4813 129.129 92.355 129.756L92.3657 129.767ZM102.951 126.254C102.612 126.673 102.192 127.02 101.716 127.273C101.136 127.602 100.482 127.778 99.8161 127.784C99.1873 127.79 98.5691 127.622 98.0291 127.3C97.4728 126.966 97.0186 126.486 96.7156 125.912C96.3952 125.348 96.2369 124.706 96.2581 124.058C96.2805 123.427 96.4748 122.815 96.8199 122.287C97.1576 121.79 97.5978 121.371 98.1109 121.058C98.624 120.745 99.1982 120.545 99.7947 120.473C100.291 120.42 100.793 120.485 101.261 120.66L100.905 121.754C100.574 121.636 100.221 121.591 99.8701 121.622C99.5197 121.653 99.18 121.759 98.8745 121.934C98.4769 122.143 98.1398 122.45 97.8953 122.827C97.6651 123.183 97.5408 123.597 97.5369 124.02C97.5304 124.464 97.6431 124.901 97.8632 125.286C98.0701 125.677 98.3764 126.008 98.7514 126.243C99.1117 126.466 99.5266 126.583 99.9499 126.583C100.399 126.581 100.841 126.463 101.231 126.241C101.544 126.076 101.816 125.846 102.031 125.565C102.245 125.285 102.396 124.961 102.473 124.617L103.591 124.916C103.491 125.408 103.277 125.869 102.965 126.262L102.951 126.254ZM109.953 121.286C109.653 121.885 109.216 122.405 108.677 122.803C108.138 123.2 107.513 123.464 106.852 123.573C106.226 123.666 105.586 123.584 105.003 123.335C104.412 123.075 103.899 122.664 103.515 122.144C103.131 121.624 102.89 121.013 102.815 120.371C102.753 119.742 102.864 119.107 103.136 118.536C103.435 117.937 103.872 117.418 104.41 117.02C104.949 116.623 105.574 116.358 106.234 116.249C106.859 116.155 107.498 116.236 108.08 116.481C108.672 116.746 109.185 117.159 109.57 117.681C109.954 118.202 110.197 118.815 110.274 119.459C110.335 120.086 110.224 120.718 109.953 121.286ZM117.242 115.157L111.175 114.499L114.5 117.854L113.585 118.761L108.674 113.79L109.434 113.038L115.501 113.697L112.173 110.331L113.091 109.427L118.002 114.398L117.242 115.157ZM122.794 108.271C122.625 108.744 122.384 109.187 122.079 109.585C121.679 110.124 121.149 110.552 120.538 110.831C119.964 111.094 119.328 111.195 118.7 111.123C118.057 111.036 117.448 110.782 116.932 110.389C116.416 109.995 116.011 109.473 115.758 108.876C115.523 108.288 115.455 107.646 115.562 107.022C115.673 106.357 115.949 105.73 116.365 105.2C116.692 104.762 117.1 104.391 117.566 104.106C117.993 103.849 118.476 103.698 118.973 103.665L119.11 104.799C118.753 104.84 118.409 104.954 118.099 105.134C117.788 105.313 117.518 105.554 117.304 105.842C117.021 106.2 116.831 106.623 116.753 107.073C116.682 107.493 116.732 107.924 116.897 108.317C117.069 108.726 117.346 109.082 117.7 109.349C118.046 109.623 118.459 109.798 118.896 109.858C119.319 109.913 119.75 109.85 120.14 109.676C120.555 109.49 120.915 109.201 121.186 108.836C121.5 108.443 121.703 107.974 121.774 107.477L120.046 106.155L120.792 105.179L123.002 106.872C123.02 107.347 122.949 107.822 122.794 108.271ZM127.489 101.019L125.003 101.235C124.979 101.292 124.936 101.372 124.878 101.476L124.091 102.841L125.857 103.857L125.209 104.981L119.153 101.503L120.584 99.0097C120.844 98.5333 121.201 98.1168 121.632 97.7871C121.996 97.5106 122.434 97.3477 122.89 97.319C123.36 97.3036 123.825 97.4253 124.227 97.6694C124.65 97.8983 124.993 98.2499 125.212 98.678C125.415 99.1079 125.48 99.5899 125.399 100.058L128.189 99.8096L127.489 101.019ZM129.211 97.6079L122.769 94.9059L124.741 90.2002L125.744 90.6229L124.273 94.1301L125.95 94.831L127.253 91.7197L128.24 92.1344L126.935 95.2457L128.711 95.9894L130.236 92.3538L131.239 92.7738L129.211 97.6079ZM132.729 88.365C132.584 88.8734 132.364 89.3575 132.077 89.8016C131.841 90.1867 131.529 90.5191 131.159 90.7781L130.316 90.0665C130.637 89.8293 130.915 89.5399 131.14 89.2104C131.386 88.8613 131.573 88.4746 131.694 88.0654C131.832 87.6849 131.861 87.2735 131.777 86.8776C131.745 86.7462 131.679 86.6258 131.585 86.5289C131.491 86.4319 131.372 86.362 131.242 86.3265C131.153 86.2982 131.059 86.2898 130.967 86.3018C130.874 86.3138 130.785 86.346 130.707 86.3961C130.531 86.5097 130.38 86.6592 130.265 86.8348C130.134 87.0247 129.971 87.2896 129.776 87.6374C129.559 88.0309 129.318 88.4106 129.054 88.7743C128.844 89.0541 128.568 89.2775 128.251 89.4244C127.886 89.578 127.477 89.5913 127.103 89.4619C126.742 89.3624 126.419 89.1552 126.178 88.868C125.92 88.5472 125.76 88.159 125.718 87.7497C125.663 87.2208 125.717 86.6862 125.878 86.1794C125.997 85.7721 126.166 85.3812 126.381 85.0157C126.575 84.6767 126.825 84.3728 127.119 84.1168L127.975 84.7883C127.721 85.0261 127.499 85.2959 127.315 85.5908C127.14 85.8685 127.005 86.1693 126.913 86.4843C126.776 86.8587 126.752 87.2654 126.844 87.6534C126.882 87.7855 126.953 87.9055 127.051 88.002C127.149 88.0985 127.27 88.1682 127.403 88.2045C127.492 88.2334 127.586 88.2418 127.679 88.2293C127.771 88.2168 127.86 88.1837 127.938 88.1323C128.112 88.017 128.261 87.8678 128.377 87.6935C128.509 87.5027 128.672 87.2352 128.866 86.891C129.076 86.4991 129.315 86.1235 129.581 85.7674C129.791 85.4875 130.067 85.2627 130.383 85.112C130.743 84.9574 131.148 84.9431 131.517 85.0718C131.877 85.1708 132.198 85.377 132.438 85.6631C132.694 85.9859 132.852 86.3761 132.892 86.7866C132.942 87.3193 132.882 87.8565 132.716 88.365H132.729ZM134.358 81.2463C134.272 81.7681 134.108 82.274 133.872 82.7471C133.68 83.1547 133.407 83.5189 133.069 83.8172L132.149 83.2045C132.442 82.9327 132.687 82.6124 132.871 82.2575C133.079 81.8848 133.222 81.4795 133.294 81.059C133.383 80.6628 133.36 80.2496 133.227 79.8659C133.182 79.7395 133.103 79.6276 133 79.5415C132.897 79.4554 132.773 79.3984 132.641 79.3763C132.548 79.3569 132.452 79.3584 132.359 79.3806C132.267 79.4028 132.18 79.4452 132.106 79.5047C131.943 79.6374 131.809 79.8022 131.713 79.9889C131.606 80.1949 131.472 80.4758 131.317 80.8343C131.146 81.2507 130.949 81.6555 130.726 82.0462C130.547 82.3472 130.297 82.5998 129.998 82.7819C129.652 82.9755 129.247 83.0346 128.861 82.9477C128.491 82.8875 128.149 82.7179 127.876 82.4608C127.582 82.1688 127.379 81.7967 127.293 81.3907C127.18 80.8722 127.174 80.3358 127.277 79.815C127.348 79.3969 127.472 78.9895 127.646 78.6032C127.799 78.2432 128.013 77.9121 128.278 77.624L129.203 78.1992C128.977 78.4643 128.787 78.7585 128.639 79.074C128.497 79.369 128.396 79.6823 128.339 80.005C128.241 80.4025 128.266 80.8206 128.411 81.2035C128.464 81.3304 128.549 81.4415 128.657 81.5263C128.765 81.6111 128.894 81.6667 129.029 81.6877C129.12 81.7052 129.214 81.7025 129.304 81.6799C129.393 81.6572 129.477 81.6151 129.548 81.5566C129.707 81.422 129.838 81.2575 129.934 81.0724C130.043 80.8664 130.174 80.5855 130.33 80.227C130.496 79.8155 130.691 79.416 130.913 79.0312C131.093 78.7285 131.344 78.4735 131.643 78.2875C131.983 78.0936 132.383 78.0344 132.764 78.1216C133.133 78.1789 133.476 78.3479 133.746 78.6059C134.038 78.8992 134.239 79.2709 134.324 79.6759C134.438 80.1924 134.446 80.7269 134.345 81.2463H134.358ZM18.7757 38.0447C18.336 38.0056 17.9144 37.8516 17.5531 37.5979C17.1806 37.3548 16.8796 37.0168 16.681 36.6188C16.4905 36.242 16.4098 35.8193 16.4482 35.3989C16.4878 34.961 16.6419 34.5412 16.895 34.1817C17.1379 33.8149 17.4715 33.5172 17.8634 33.3176C18.2407 33.1287 18.663 33.0481 19.0833 33.0848C19.5228 33.1247 19.9442 33.2787 20.3059 33.5316C20.6747 33.7743 20.9728 34.1103 21.17 34.5054C21.3605 34.8821 21.4411 35.3049 21.4027 35.7253C21.3576 36.1616 21.2059 36.5801 20.961 36.944C20.7161 37.3078 20.3855 37.6059 19.9982 37.8119C19.6199 38.0006 19.1969 38.0812 18.7757 38.0447ZM131.535 60.2594C131.64 60.3533 131.766 60.42 131.903 60.4536C132.04 60.4872 132.183 60.4866 132.319 60.452C132.46 60.436 132.594 60.3864 132.712 60.3072C132.829 60.228 132.926 60.1217 132.993 59.9973C133.128 59.6851 133.156 59.3372 133.073 59.0074L132.766 57.298L130.818 57.6618L131.126 59.3713C131.164 59.7033 131.308 60.0145 131.535 60.2594ZM24.2568 27.1766C24.3141 27.3054 24.339 27.4462 24.3293 27.5868C24.2776 27.9211 24.1179 28.2293 23.8745 28.4643L22.7135 29.7591L21.2368 28.4215L22.3978 27.1293C22.6092 26.8661 22.9001 26.6784 23.2271 26.5943C23.3669 26.5718 23.5101 26.5831 23.6446 26.6273C23.7791 26.6715 23.9011 26.7474 24.0003 26.8484C24.1113 26.9352 24.1994 27.0479 24.2568 27.1766ZM107.512 117.626C107.127 117.451 106.7 117.387 106.281 117.442C105.847 117.504 105.435 117.674 105.082 117.934C104.729 118.194 104.446 118.538 104.258 118.934C104.083 119.318 104.018 119.744 104.071 120.162C104.133 120.599 104.302 121.013 104.563 121.368C104.825 121.723 105.171 122.008 105.569 122.196C105.954 122.371 106.381 122.435 106.8 122.38C107.234 122.317 107.646 122.148 107.999 121.888C108.352 121.627 108.635 121.284 108.822 120.887C108.998 120.503 109.062 120.078 109.01 119.659C108.948 119.223 108.779 118.808 108.518 118.453C108.256 118.098 107.91 117.814 107.512 117.626ZM19.9524 102.601L18.1118 105.372L16.6779 103.17L19.9524 102.601ZM78.3066 9.11989C78.4592 9.00316 78.5866 8.85681 78.6812 8.68962C78.7758 8.52243 78.8356 8.33786 78.8571 8.14697C78.8786 7.95609 78.8613 7.76283 78.8062 7.57879C78.7512 7.39476 78.6595 7.22375 78.5367 7.07603C78.1923 6.77231 77.7542 6.59576 77.2954 6.57576L75.7866 6.40723L75.4789 9.16804L76.9878 9.33391C77.4389 9.41779 77.9052 9.34213 78.3066 9.11989ZM51.4529 74.4007C52.0361 72.2231 53.7135 69.2804 57.745 69.2804C57.745 50.4389 44.3663 45.8241 44.3663 45.8241C44.3663 45.8241 47.1378 59.5801 47.1378 74.4007H51.4529ZM44.7382 94.6869C49.6241 93.8191 54.5538 93.2199 59.5053 92.8918C59.5177 89.4671 60.0323 86.0628 61.0329 82.7875C60.0966 82.5307 59.1156 82.2908 58.0901 82.0679C54.1629 81.2038 52.3465 79.4381 51.6135 77.8865H47.0816C46.9024 83.7185 46.2336 89.5826 44.7382 94.6869ZM72.2554 50.891C74.433 43.2104 71.8407 36.4181 70.0002 32.9109C68.1596 36.4181 65.57 43.2158 67.745 50.891C69.0853 55.6127 69.8343 59.5988 70.0002 63.221C70.1687 59.5988 70.9178 55.6127 72.2554 50.891ZM70.0082 66.3778C69.7701 70.7464 68.5636 74.6843 66.3458 78.9245C66.0783 79.4408 65.8108 80.0133 65.5299 80.634C68.9374 81.8324 69.7918 85.8789 69.9805 88.4722C70.1348 85.9157 70.9596 81.9409 74.4731 80.634C74.2056 80.0133 73.9381 79.4408 73.6706 78.9245C71.4528 74.6843 70.249 70.7464 70.0082 66.3778ZM70.0002 109.829C73.7796 106.209 76.1771 101.383 76.7792 96.185C76.9223 95.0313 76.992 93.8697 76.9878 92.7072C76.9563 89.7314 76.506 86.7748 75.6502 83.9245C71.2281 87.124 70.0082 104.007 70.0082 104.007C70.0082 104.007 68.3335 86.3322 64.3421 83.9245C63.4864 86.7748 63.0361 89.7314 63.0045 92.7072C62.9994 93.8696 63.0682 95.0312 63.2105 96.185C63.8166 101.385 66.2178 106.21 70.0002 109.829ZM78.9488 82.7982C79.953 86.0729 80.4712 89.4773 80.487 92.9025L80.4977 92.8918C85.4413 93.2244 90.3631 93.8272 95.2408 94.6976C93.7454 89.5932 93.0792 83.7399 92.8973 77.8972H88.3655C87.6352 79.4489 85.8187 81.2145 81.8915 82.0786C80.8776 82.3006 79.8904 82.5307 78.9488 82.7982ZM88.5501 74.4114H92.8545L92.8652 74.4007C92.8679 59.5801 95.6341 45.8348 95.6341 45.8348C95.6341 45.8348 82.258 50.4496 82.258 69.2911C86.2922 69.2911 87.9696 72.2418 88.5501 74.4114Z" fill="#171818"/>
<circle cx="70" cy="70" r="69" stroke="#171818" stroke-width="2"/>
</svg>
