<svg width="24" height="24" viewBox="0 0 24 24" fill="none" xmlns="http://www.w3.org/2000/svg">
<path fill-rule="evenodd" clip-rule="evenodd" d="M16.7807 18.4042C12.7242 21.6531 6.78638 21.3974 3.02603 17.637C-1.00868 13.6023 -1.00868 7.06075 3.02603 3.02604C7.06074 -1.00868 13.6023 -1.00868 17.637 3.02604C21.3974 6.78638 21.6531 12.7242 18.4042 16.7807L22.6638 21.0403C23.1121 21.4886 23.1121 22.2155 22.6638 22.6638C22.2155 23.1121 21.4886 23.1121 21.0403 22.6638L16.7807 18.4042ZM4.64948 16.0136C1.51137 12.8755 1.51137 7.78759 4.64948 4.64948C7.78758 1.51137 12.8755 1.51137 16.0136 4.64948C19.1494 7.78529 19.1517 12.868 16.0205 16.0067C16.0182 16.0089 16.0159 16.0112 16.0135 16.0135C16.0112 16.0158 16.009 16.0182 16.0067 16.0205C12.868 19.1517 7.78528 19.1494 4.64948 16.0136Z" fill="#3D3D3D"/>
</svg>
