<svg width="233" height="344" viewBox="0 0 233 344" fill="none" xmlns="http://www.w3.org/2000/svg">
<path fill-rule="evenodd" clip-rule="evenodd" d="M111.453 92.3157C109.685 93.9589 107.31 95.7586 104.283 97.259C103.324 97.7222 102.416 98.1006 101.532 98.4365C101.712 97.7426 101.875 96.9812 101.987 96.161C102.133 95.3322 102.219 94.5545 102.281 93.8192C98.9871 96.7913 95.3273 97.2322 91.6773 97.8504C90.236 98.1144 89.0045 98.2164 88.4585 96.3791C85.2747 98.1183 82.2689 99.7424 79.1472 101.429L78.969 101.525C77.7273 99.2202 80.1511 98.307 80.2377 96.4144C79.666 96.7058 79.1356 96.8786 78.7161 97.2026C77.0543 98.4227 75.4187 99.744 73.7145 100.939C73.3537 101.212 72.6036 101.37 72.2982 101.161C71.9503 100.927 71.7676 100.219 71.8316 99.7705C71.9597 98.8742 72.2824 98.0356 72.5627 97.172L72.5649 97.1653C72.8444 96.3039 73.1243 95.4416 73.5274 94.2255C71.8634 95.1585 70.0135 96.0674 67.9441 96.9611C66.3626 97.657 64.8225 98.2342 63.366 98.718C63.944 97.0582 64.5133 95.3647 65.0913 93.7049C62.0706 93.837 59.1684 94.0105 56.2824 94.1078C53.4639 94.1877 50.6193 94.1664 47.6736 94.1713C49.1794 90.2579 54.7496 86.9143 62.9397 85.0885C60.596 84.3625 58.8361 83.8096 56.6446 83.1163C59.7473 79.4023 63.5811 79.6359 67.9279 79.6291C66.318 78.8217 65.2842 78.2972 63.8438 77.5899C66.8966 75.0757 70.1282 74.9251 73.4772 74.6724C73.0075 73.9663 72.6149 73.4202 72.0941 72.6554C75.309 70.3512 78.7081 71.1285 82.1887 71.5252C83.2449 69.4902 85.2971 69.644 87.1124 69.7151C89.544 69.807 91.9539 70.372 94.3616 70.6499C95.029 70.7294 95.8573 70.8754 96.404 70.6264C100.356 68.6715 104.416 68.6668 108.586 69.7848C108.856 69.8588 109.118 69.8991 109.38 69.9394C109.456 69.9558 109.549 69.896 109.607 69.8448L109.595 69.8183C109.346 69.2875 108.749 68.0115 109.21 67.6095C109.328 67.5072 109.505 67.4975 109.783 67.4617C111.015 67.3597 111.267 67.2227 111.731 67.2108C115.216 67.0668 118.874 68.5687 118.874 68.5687C122.708 69.9172 125.758 72.5468 128.348 75.6191L128.386 75.6638C129.77 77.3026 131.155 78.9419 132.59 80.6388C137.074 79.7696 141.485 80.4297 145.822 81.3606C180.504 88.884 210.615 104.6 234.506 131.309C241.624 139.255 247.516 148.022 251.745 157.864C258.131 172.725 260.141 188.176 258.265 204.162C254.812 233.539 242.15 258.423 221.159 279.161L219.581 273.742C237.926 253.47 248.443 229.607 251.626 202.53C254.288 179.975 248.55 159.552 234.804 141.519C220.581 122.889 202.712 108.654 181.8 98.2246C168.641 91.6574 155.002 86.2932 140.512 83.3424C134.137 82.038 133.707 82.0412 129.858 87.4584C126.568 92.1197 121.837 93.7003 116.532 94.1702C114.6 94.3449 113.972 93.8597 112.211 94.2781C111.739 94.3998 111.099 94.565 110.843 94.2713C110.62 93.8253 111.036 92.9269 111.453 92.3157ZM101.915 91.288C99.6083 94.1852 96.6128 95.3898 92.4802 95.8088C94.0896 93.2715 95.399 91.2431 96.7085 89.2148C98.5102 86.4479 101.071 84.6722 104.101 83.6025C105.063 83.2564 106.093 83.1756 107.312 83.08C107.885 83.035 108.5 82.9868 109.168 82.9063C108.897 83.2275 108.692 83.477 108.523 83.6824C108.281 83.9771 108.113 84.1812 107.931 84.3766C107.482 84.881 107.031 85.3825 106.581 85.8836C106.551 85.9169 106.52 85.9508 106.49 85.9841L106.489 85.9849C104.926 87.7221 103.366 89.4561 101.915 91.288ZM93.0488 84.2246C93.7734 84.2305 94.4857 84.1265 95.3494 84.0003C95.7736 83.9383 96.2343 83.871 96.751 83.8087C94.769 91.3696 88.816 94.2946 82.3793 97.4572L82.2803 97.5058C83.2384 95.9712 84.1489 94.4897 85.0366 93.0453C86.505 90.6561 87.9111 88.3684 89.3665 86.1099C90.1836 84.8201 91.4194 84.1775 93.0488 84.2246ZM99.3306 79.0428C96.6978 77.3397 94.1252 75.5613 91.5052 73.7502C90.605 73.1279 89.6992 72.5018 88.7835 71.8735C96.0162 71.7695 104.768 76.0211 109.932 81.2705C109.707 81.2955 109.499 81.3229 109.303 81.3485C108.862 81.4064 108.485 81.4559 108.111 81.4529C104.945 81.4424 101.96 80.738 99.3306 79.0428ZM112.191 78.6017C109.247 77.0667 106.324 75.4722 103.414 73.8843L103.411 73.8827L103.408 73.881L103.406 73.8804L103.405 73.8795L103.403 73.8787C102.211 73.2283 101.021 72.5791 99.8326 71.9356C108.382 69.6934 114.167 74.423 120.092 79.8357C117.041 80.4072 114.555 79.8258 112.191 78.6017ZM76.503 73.0284C82.2594 71.9385 89.9167 75.4296 95.4528 81.8418C93.6268 82.5648 92.0409 82.6863 90.4745 82.0475C89.0939 81.4326 87.6709 80.7927 86.4066 79.9321C84.1765 78.4462 81.9936 76.9013 79.8367 75.3748C78.7194 74.5841 77.6092 73.7984 76.503 73.0284ZM59.8452 92.0375C58.0862 92.1211 56.316 92.1034 54.4071 92.0843C53.3492 92.0737 52.2488 92.0627 51.0841 92.0683C56.7095 87.1279 62.7377 86.2556 69.45 87.6167C68.4938 89.482 67.1114 90.8098 65.1485 91.2804C63.43 91.7238 61.6257 91.9736 59.8452 92.0375ZM113.532 89.3694C111.431 90.5252 109.283 91.5744 107.013 92.683C106.222 93.0691 105.417 93.4623 104.594 93.8697C107.13 86.7053 112.28 83.5422 119.454 82.5179C119.418 82.6708 119.386 82.8186 119.355 82.9617C119.255 83.4282 119.165 83.8449 118.961 84.2277C117.721 86.5259 115.767 88.1451 113.532 89.3694ZM83.8824 90.7621C82.1479 92.3966 78.6592 95.3111 73.9847 98.7832C74.1454 97.7347 75.8036 88.4229 82.6717 85.9313C83.5641 85.6291 84.7184 85.3671 86.0771 85.3402C86.1936 86.2094 86.0818 87.0295 85.8765 87.7658C85.4322 89.2472 84.4856 90.1749 83.8824 90.7621ZM68.1449 77.1274C75.1817 75.7072 80.5344 78.0665 85.2669 83.1755C83.241 84.2378 81.4757 84.0819 79.7234 83.4191C78.9701 83.1459 78.233 82.7966 77.521 82.4048C75.3285 81.1937 73.1269 79.947 70.8122 78.6362L70.8114 78.6358C69.9404 78.1425 69.0534 77.6402 68.1449 77.1274ZM122.01 85.5989C124.304 83.065 127.312 82.4684 130.724 82.7389C126.555 89.2818 123.968 90.9564 116.927 91.8023C117.334 91.2955 117.735 90.7903 118.135 90.288C119.415 88.6765 120.671 87.0963 122.01 85.5989ZM117.991 73.3643C117.866 73.2605 117.735 73.1519 117.599 73.0386C116.44 72.0733 114.877 70.7724 112.954 69.3049C115.126 69.6437 119.201 70.5343 123.377 73.4851C127.026 76.0681 129.143 79.1186 130.221 80.9266C129.878 80.8312 129.525 80.7634 129.174 80.696C128.496 80.5656 127.824 80.4365 127.243 80.1124C125.413 79.1461 123.59 78.0699 122.001 76.7893C121.002 75.9946 120.405 75.4681 119.705 74.8499C119.232 74.4331 118.713 73.9747 117.991 73.3643ZM77.3185 86.7731C72.0066 87.4965 66.816 91.8931 66.4254 95.9503C66.8289 95.7497 67.2342 95.5524 67.639 95.3553C71.612 93.4207 75.5398 91.5081 77.3185 86.7731ZM76.2921 85.0239C71.1099 81.7933 63.9486 80.2244 60.4892 82.5558C61.7912 82.8951 63.0686 83.3308 64.343 83.7656C68.1595 85.0676 71.949 86.3603 76.2921 85.0239Z" fill="#C4BDB2"/>
<path fill-rule="evenodd" clip-rule="evenodd" d="M245.737 231.614C248.606 209.49 245.395 188.46 234.401 168.84C227.654 156.775 218.137 147.413 206.656 139.877C195.364 132.454 182.944 127.883 169.863 124.892C169.063 124.708 168.277 124.648 167.348 124.528C167.032 125.121 166.674 125.613 166.46 126.164C165.303 129.088 163.101 130.798 160.108 131.533C156.836 132.372 155.198 132.815 149.636 134.245C148.956 134.416 148.402 134.571 148.051 134.643C147.986 134.194 147.977 133.65 147.972 133.057C147.997 132.393 148.064 131.83 148.176 131.32C145.076 132.838 141.926 134.351 138.825 135.869C139.099 134.329 139.291 133.321 139.572 131.852L139.651 131.439C137.627 133.087 136.051 134.35 134.475 135.613C133.74 136.199 133.062 137.333 131.955 136.632C130.892 135.983 131.423 134.839 131.519 133.883C131.601 133.124 131.781 132.373 131.982 131.326C128.787 132.466 126.177 134.021 123.654 135.731C123.213 136.018 122.81 136.457 122.327 136.642C121.255 137.104 120.51 136.505 120.72 135.36C120.921 134.314 121.316 133.332 121.317 131.999C120.115 133.216 118.581 134.581 116.661 135.818C115.986 136.26 115.342 136.631 114.7 136.953C114.525 136.322 114.418 135.45 114.469 134.442C114.594 132.452 115.444 130.986 115.919 130.256C112.728 131.989 110.076 133.442 107.27 134.982C106.216 132.582 108.652 131.359 108.751 129.392C103.965 130.658 99.1342 129.576 94.1803 129.472C95.1296 128.334 96.9798 126.376 99.9223 124.995C103.453 123.337 106.663 123.333 108.211 123.426C107.368 122.819 106.309 122.122 105.047 121.508C103.834 120.897 102.704 120.491 101.714 120.193C102.042 119.774 102.445 119.335 102.943 118.953C105.25 117.153 108.033 117.241 109.087 117.346C109.044 116.602 108.691 115.711 108.981 115.14C109.217 114.615 110.085 114.237 110.764 114.066C112.576 113.611 114.448 113.333 116.479 112.919C116.498 111.341 117.887 110.928 119.25 110.858C121.107 110.777 123.049 111.22 124.868 110.988C126.563 110.771 128.147 109.731 129.853 109.366C131.333 109.059 132.926 109.204 135.003 109.164C136.197 107.724 138.553 107.582 140.906 108.131C143.161 108.672 145.338 109.602 147.575 110.389C147.12 109.861 146.617 109.329 146.167 108.752C145.38 107.729 145.695 106.815 146.952 106.516C147.549 106.366 148.205 106.389 148.815 106.411L148.836 106.412C155.251 106.775 159.894 110.04 163.302 115.285L163.322 115.315C163.827 116.06 164.35 116.832 164.579 117.678C165.309 120.448 167.432 121.103 169.872 121.486C190.203 124.904 208.157 133.35 223.43 147.271C234.152 157.021 241.089 169.199 246.26 182.527C251.655 196.489 253.208 210.999 252.024 225.795L245.737 231.614ZM160.416 122.497C161.549 122.516 162.685 122.637 163.901 122.766C164.484 122.828 165.086 122.892 165.714 122.948C164.654 125.558 163.188 127.002 162.317 127.751C160.402 129.26 158.364 129.772 154.892 130.644C152.93 131.137 151.307 131.384 150.208 131.548C150.655 130.199 152.124 126.41 155.975 124.11C158.042 122.884 159.948 122.486 160.416 122.497ZM161.468 115.714C162.384 117.018 163.241 118.373 164.223 119.926C164.556 120.453 164.904 121.003 165.273 121.581C160.364 121.209 156.632 119.963 154.166 115.975C153.158 114.334 151.997 112.783 150.773 111.147C150.181 110.356 149.573 109.544 148.961 108.692C149.234 108.688 149.48 108.671 149.707 108.655C150.158 108.624 150.532 108.598 150.886 108.69C155.249 109.762 158.859 111.986 161.468 115.714ZM145.415 116.792C143.526 115.075 141.682 113.32 139.837 111.565C139.222 110.98 138.607 110.394 137.991 109.811C143.388 108.936 150.015 113.389 152.909 119.903C151.422 120.63 150.055 120.106 148.849 119.398C147.643 118.689 146.478 117.762 145.415 116.792ZM127.912 131.289C126.66 131.861 124.838 132.784 122.726 134.278C124.452 130.36 126.448 127.771 127.793 126.293C129.142 124.766 130.247 123.863 131.715 123.382C132.752 123.041 133.896 122.93 135.169 123.076C135.226 125.598 134.309 127.627 132.265 128.879C130.326 130.04 128.908 130.846 127.912 131.289ZM135.236 116.909C133.845 115.717 132.503 114.442 131.162 113.166C130.491 112.528 129.82 111.89 129.143 111.263C133.029 109.805 139.565 113.51 143.398 119.997C141.802 120.542 140.321 120.208 138.991 119.514C137.664 118.772 136.371 117.909 135.236 116.909ZM133.583 133.349C134.695 126.422 138.114 122.978 144.576 122.382C144.781 124.915 143.452 126.518 141.827 127.777C139.931 129.174 137.952 130.473 135.917 131.809C135.146 132.314 134.368 132.825 133.583 133.349ZM147.06 124.15C149.945 122.221 152.848 122.022 154.109 121.994C153.971 122.526 153.689 123.32 153.226 124.223C151.657 127.041 149.255 128.464 147.297 129.55C146.06 130.246 144.14 131.162 141.626 131.761C141.904 130.696 143.112 126.764 147.06 124.15ZM118.397 121.236C117.053 120.043 115.666 118.886 114.265 117.717C113.448 117.036 112.627 116.35 111.806 115.651C115.906 113.32 121.39 116.229 125.104 121.992C122.682 123.018 120.478 123.122 118.397 121.236ZM120.073 113.044C123.997 111.416 130.404 115.185 134.093 121.291C131.462 121.486 129.135 120.915 127.203 119.361C125.441 117.928 123.764 116.399 122.064 114.849C121.406 114.249 120.745 113.646 120.073 113.044ZM126.317 124.256C121.652 123.26 117.702 127.207 117.23 132.849C124.324 128.45 125.334 127.489 126.317 124.256ZM110.858 125.651C106.177 124.21 102.086 125.109 98.1315 128.463C99.2526 128.377 100.37 128.395 101.475 128.413C104.821 128.467 108.044 128.519 110.858 125.651ZM109.638 131.385C114.356 130.36 117.424 127.951 118.083 124.767C113.518 124.742 111.599 127.954 109.638 131.385ZM105.588 119.895C106.444 120.265 107.261 120.661 108.059 121.047C110.868 122.406 113.434 123.647 116.615 123.273C113.951 119.961 109.761 118.557 105.588 119.895Z" fill="#C4BDB2"/>
<path fill-rule="evenodd" clip-rule="evenodd" d="M135.917 131.809L144.576 122.382C144.781 124.915 143.452 126.518 141.827 127.777C139.931 129.174 137.952 130.473 135.917 131.809Z" fill="#C4BDB2"/>
</svg>
